<?xml version="1.0" standalone="yes"?>
<svg xmlns="http://www.w3.org/2000/svg" width="360" height="424">
<path style="fill:#896374; stroke:none;" d="M0 0C0 7.293 -3.29039 25.4634 3 30L1 33L7 35L5 39L9 39C8.22801 43.764 10.4259 46.6536 15 48L16 54L17 54L19 51C19.5782 55.2775 21.0322 57.2877 25 59L24 62L31 69L34 68L39 72L38 78L28 72L30 69L21 68L19 77L27 78L23 80L23 85L27 84L25 81L29 80L32 84L29 85L29 86L40 87L40 88L37 89L37 91C43.082 97.0575 42.1907 107.873 50.1736 112.558C56.626 116.345 57.9307 111.657 63.4861 110.739C65.3103 110.438 68.2244 113.33 70 114L68 98L73 100L74 85C77.1942 84.9865 79.2708 85.4029 80 82L81 82L84 91L86 87L88 83L88 82L86 80L91 80C90.9471 73.3387 94.8749 60.1119 99.6844 55.3171C102.185 52.8239 105.798 52.5634 108.286 49.9414C117.738 39.9822 124.865 28.7443 137 21.4784C143.913 17.3389 157.655 17.9005 162 11L192 11.6296L208 20L208 18L211 19L226 20L227 20L236 38L278 37.0146L324 37L317 39C314.372 44.028 309.488 45.9268 304 45C299.239 50.3608 297.201 52.6453 290 52L292 56C287.847 57.3785 287.893 60.1146 289 64L272 72L273 57L272 57L272 59L271 59L265 44L264 44L263 47L259 41C252.441 39.8539 238.618 37.4385 235 44C245.344 40.4434 252.829 47.2614 259 55L263 55C260.001 60.1501 265.32 63.1591 266.581 68.0394C268.29 74.6531 268.044 84.137 267.995 91C267.905 103.708 269.968 124.792 265.003 136.535C263.001 141.27 257.881 140.39 254.898 143.599C252.282 146.413 254.049 151.505 253 155C248.569 139.385 240.431 121.092 239.209 105C238.504 95.7195 237.618 75.734 229.692 69.3758C226.382 66.7206 223.365 69.6528 220 70.5856C213.242 72.459 205.928 72 199 72C172.379 72 138.953 72.3738 121.688 96.0247C118.462 100.443 118.722 105.015 116.816 109.83C114.373 115.999 111.333 121.202 111 128L119 125C119.854 128.987 123.489 128 127 128L127 129C118.082 129.401 112.114 132.351 112 142L120 139L119 142L134 139L134 143L135 143L135 139L140 139C136.655 146.583 131.487 149.514 126 142C121.837 144.493 118.128 152.502 113 149L112 149L104 150C103.699 163.006 103.66 188.824 116 197L114 200L115 208C123.553 215.968 131.496 229.821 135 241L139 240C134.669 252.157 153.424 255.198 160 260L185 261.826L224 250C217.401 258.711 203.77 270.621 192 269C185.726 274.492 173.836 273.234 166.134 275.968C163.063 277.058 161.063 280.86 157.866 281.343C150.629 282.435 144.689 273.212 137.806 281.398C132.953 287.169 133.571 295.103 137.245 300.995C138.705 303.336 144.683 308.713 143 311L160.388 324.171L170 342L170 340L174 342L151 313L154 314L154 313L150 312L149 305L152 305L152 304L154 299L152 297L152 296C155.302 296.402 160.46 297.287 161 301L159 299C159.608 303.758 167.37 300.246 171 300C170.767 294.091 170.713 291.427 176 288L175 284C181.401 285.822 198.346 282.541 203.812 278.391C208.607 274.75 210.574 268.26 217 267L218 263L230 254C231.42 276.008 227.549 300.494 214.362 319C207.153 329.117 188.95 340.062 187 353L183 353C181.955 348.071 176.352 345.824 172 344C175.836 348.782 181.75 353.529 188 354L179 373L187 365L188 360L204 334L205 334L205 336L206 336C207.13 331.211 209.824 328.474 214 326L213 333L217 331L220 342L218 337L217 337C217.575 342.529 217.106 352.973 213 357C212.973 352.186 212.167 348.419 216 345L216 344L200 350L200 352L211 349L211 350L201 357L200 357L197 356C199.957 360.181 199.284 362.32 195 365L195 366L197 365L197 366L193 369L199 368L195 386L235 387L234 384L236 387L237 387L236 353L235 353L235 360L234 360L234 352L233 352L232 355L231 355C230.824 351.237 230.571 348.991 234 347L234 337L231 338L230 337L231 332L225 335L225 339L224 339L218.183 321L235.251 276L236 238L237 238L244.111 268L240 286C246.137 287.431 243.173 299.16 244.222 303.94C245.978 311.937 255.463 322.469 263 325C264.02 322.101 264.228 320.692 261 320C261.108 315.576 259.871 310.437 256 308C256.887 299.929 248.089 284.621 256 280L261 290L266 289L267 294L264 293C264.215 296.332 263.127 300.513 267 301L273 324L266 329C263.15 327.492 262.486 329.175 262 332L261 332L261 328L260 328L260 334L264 336L260 336L259 345L263 345C262.369 348.984 261.06 350.573 257 351L257 364L262 363L263 363L263 368L257 369L260 383L264 382L264 387L293 388L293 387L290 385L294 385L293 382L290 384L291 376L293 376L293 381L294 381L294 374L291 376L290 376L287 352L290 351L288 347L289 347L289 349L290 349L290 344L286 341C292.492 337.014 286.974 331.115 287 325L290 326L291 326L289 320L289 319L289 318C293.416 314.141 290.414 304.244 290 299L283 301L283 294L288 295L291 291L291 290L283 286L283 285L300 292L300 293L298 293L298 294L308 293L310 301L309 301L309 299L308 299L308 304L309 304L312 301L310 303L311 307C307.408 307.612 311.27 326.112 315 328L314 323L317 323L316 336L314 336L313 332L312 332L314 336L312 343L318 342L314 346L312 353L312 354L316 353L316 360L314 360L313 357L312 357L312 368L313 368L315 365L314 371C319.956 374.253 319.233 381.979 320 388L335 388L336 382C334.499 380.188 334.842 379.978 337 379L333 376L334 372L338 375L336 371L340 366L339 366L339 368L338 368L344 339L346 340L350 321L347 322L347 317L350 318L351 314L346 312L346 311L350 312C346.064 307.3 334.804 303.453 329 306L331 298L331 297C320.336 293.995 312.958 286.089 302.715 282.549C289.861 278.106 262.254 278.005 253.514 266.891C250.004 262.429 250.057 254.453 249 249L251 253C261.211 250.876 253.325 236.159 246 235L246 234L253 233L259 228L258 232L264 226L278 221C280.493 214.722 284.891 214.152 291 213L283 207C286.053 201.003 291.684 199.875 296.946 196.505C304.099 191.925 308.406 185.782 311 178L315 180L316 179L314 176L314 175C316.941 173.604 335.729 170.665 328 169L328 168L332 165L332 169L336 169L343 159L336 162L335 162L351 149L358 153C359.706 148.097 359.702 143.119 355 140L360 136L359 100C348.368 97.9251 350.411 99.0874 352 89L344 88L344 87C354.669 86.9706 359.999 86.4579 360 75L355 76L352 73L352 72C361.088 69.4593 362.199 55.8015 352 61L348 55L351 56L352 56L352 49L357 47L352 48L354 40L339 39L339 38L360 38L360 0C349.359 0.0223083 338.551 -2.05573 330 5L327 1L326 1C327.763 5.76025 328.643 11.8341 334 13L332 21L328 20L326 23L326 24L328 27C319.6 29.9976 313.851 32.8768 305 29L306 35L301 33C301 39.3939 290.818 29.1076 290 26L304 22C299.695 15.6393 294.121 19.075 288 19L285 29L272 24L267 29C266.874 24.1449 267.5 20.4164 272 18C273 21.0359 273.863 21.4943 277 21L277 20C272.071 17.0213 270.195 13.5499 269 8L271 11L280 16L281 16C281.672 11.5959 283.703 9.21777 288 8L287 17L288 14L295 16L292 7L301 4C297.833 -2.02451 287.882 0 282 0L228 0L0 0z"/>
<path style="fill:#513f5c; stroke:none;" d="M294.667 0.333344L295.333 0.666656L294.667 0.333344M299 0L301 4L292 7L295 16C291.2 14.7513 289.556 13.1161 287 17L288 8C283.225 8.75995 281.359 11.2687 281 16L280 16C277.853 12.3062 275.296 10.3808 271 11L271 8L269 8C269.791 13.753 271.427 17.7068 277 20L277 21L272 18C266.891 19.6498 266.348 24.1468 267 29L272 24L285 29L288 19C294.411 20.0658 298.458 16.5844 304 22C296.735 21.3535 296.349 22.4454 290 26C290.686 29.3784 299.913 39.5577 301 33L306 35L305 29C312.826 33.903 320.607 30.9255 328 27L326 24L326 23L328 20L332 21L334 13L326 1L327 1L330 5L335 0L314 0L315 3C310.327 4.62091 309.294 9.42328 309 14L307 14L307 7L300 13L307 0L299 0z"/>
<path style="fill:#896374; stroke:none;" d="M301.667 0.333344L302.333 0.666656L301.667 0.333344M300 13L307 7L307 14L309 14C309.564 9.47495 310.936 5.34174 315 3L314 0L312 2C305.973 -2.08084 299.802 7.52655 300 13z"/>
<path style="fill:#513f5c; stroke:none;" d="M311.333 0.666656L311.667 1.33334L311.333 0.666656z"/>
<path style="fill:#896374; stroke:none;" d="M330 0L331 1L330 0z"/>
<path style="fill:#513f5c; stroke:none;" d="M351 0L352 1L351 0M31 3L31 4C34.8306 5.51651 37.6303 7.03375 40 3L31 3M41 3L44 11L47 3L41 3M262 2L262 4L264 4L264 2L262 2M279 4L276 10L282 8L279 4M340 4L341 5L340 4M336 6L339 8L336 6z"/>
<path style="fill:#896374; stroke:none;" d="M323.667 7.33334L324.333 7.66666L323.667 7.33334z"/>
<path style="fill:#513f5c; stroke:none;" d="M175 8L176 9L175 8M332 8L332 9L335 9L332 8M181 9L181 11L184 11L184 9L181 9M51 10L51 14L54 10L51 10M162 11C156.096 17.207 145.467 16.6108 138 20.3773C125.238 26.8152 117.526 38.8725 108.286 49.1111C105.583 52.1062 101.576 52.491 98.9421 55.3171C94.6447 59.929 90.1697 73.8839 91 80L86 80L88 82L88 83C85.555 83.7875 83.7283 84.8533 86 87L84 91L81 82L80 82L80 85L74 85L73 100L68 98L70 114C68.2923 113.04 65.7885 110.32 63.7801 110.326C58.1315 110.343 56.6546 116.372 50.1736 111.994C42.6064 106.882 43.9693 95.726 37 91L37 89L40 88L40 87L29 86L29 85L32 84L29 80L25 81L27 84L23 85L23 80L27 78L19 77L21 68L30 69L28 72L38 78L39 72L34 68L31 69L24 62L25 59L19 51L17 54L16 54L15 48C10.9618 46.0237 8.99849 43.5567 9 39L5 39L7 35L1 33L3 30L2 29L1 29L0 29L3 64L1 62L0 62L4.98765 78.946L8 87L8 88L11 87C8.57802 91.1887 4.6002 91.7893 0 92L0 95C4.89836 94.5258 12.5934 91.8221 17.331 93.5147C25.2026 96.3269 20.7886 108.241 18 113L24 114L24 116C27.9955 115.341 29.7976 116.048 31 120L25 120L25 121C30.8117 122.972 36.1045 123.326 38 130L40 130L40 126L41 126C42.7327 132.546 43.3511 137.485 51 138C50.0509 142.207 49.1494 147.228 53 150L56 142C55.7411 148.029 52.9254 156.184 60 159L60 160L12 162L12 163L22 166C20.7288 170.915 18.9151 176.019 24 179L24 181L16 184L16 185L24 186L22 198L29 199L29 200L24 202L23 202L19 217L24 218L24 222C15.2739 222.384 16.775 232.228 6 228L8 232L4 246L3 246L6 240L6 239L3 232C-1.94901 235.218 0 245.597 0 251L0 308L43 289L43 288L39 288L39 287L65 277C65 269.913 87.8695 268.445 93 269L93 275L88 277L88 279L94 281L98 278L96 284C82.2867 280.821 56.1135 280.646 44 288L44 289C60.9247 286.761 76.0396 285.756 93 288L92 298L96 297C85.8714 315.177 87.831 331.487 90 352L91 352L91 327L104 328C104.191 331.488 104.333 334.217 108 335L105 346L108 345L111 350L111 351C107.508 354.416 106.244 357.131 107 362L111 365L112 365C112 354.936 109.439 342.759 111.044 333.001C113.287 319.365 119.958 328.766 121 337L122 337L123 323L136 341L132 340L132 344L139 344L137 338C144.863 334.264 150.368 336.586 151 346L161 350L156 339L172 352C166.7 358.489 172.007 367.064 175 374L170 385L170 386C178.796 385.707 183.645 361.852 188 354C179.553 352.697 166.782 341.804 163.218 334C161.549 330.345 163.168 326.693 160.424 323.289C155.706 317.438 148.356 315.769 143 311C145.451 308.698 139.443 303.446 137.875 300.995C133.939 294.846 132.861 286.088 139.282 280.69C146.062 274.99 150.027 281.284 156.94 281.718C160.816 281.961 162.842 277.691 166.134 276.384C172.729 273.767 187.76 274.93 192 269C202.67 271.606 219.322 259.163 224 250C209.638 252.957 193.949 264.683 179 261.361C175.392 260.559 161.889 257.029 160 260C154.174 254.487 135.47 252.128 139 240L135 241C132.808 230.95 123.866 213.638 115 208L114 200L116 197C103.914 185.24 105.125 165.316 104 150L112 149L113 149C117.295 153.901 122.852 144.762 126 142C130.307 150.936 137.67 146.822 140 139L135 139L135 143L134 143L134 139L119 142L120 139L112 142C112.301 132.734 118.78 129.962 127 129L127 128L119 125L111 128C111.622 121.633 114.456 116.524 116.816 110.715C118.762 105.921 118.465 101.391 121.688 96.9753C138.962 73.3031 171.123 72 198 72C205.348 72 212.762 72.3489 220 70.8125C223.421 70.0864 226.512 67.6431 229.681 70.2778C237.628 76.8851 238.212 96.5145 239.177 106.004C240.732 121.305 247.483 140.587 253 155L254.948 144.317L265.142 137.076L266.285 125L267.985 88L266.581 67.0895L263 55L259 55C254.377 46.701 244.47 39.5211 235 44C240.105 37.8764 251.663 40.3271 259 41L263 47L264 44L265 44C263.926 52.5476 267.43 52.3728 271 59L272 59L272 57L273 57L272 72L289 64C288.192 60.0888 288.392 57.9951 292 56L290 52C296.962 53.0973 300.274 51.1866 304 45C309.333 46.876 315.241 44.5918 317 39L324 37L236 38L227 20L226 20L211 19L208 18L208 20C192.406 7.70557 179.532 15.027 162 11z"/>
<path style="fill:#896374; stroke:none;" d="M296 15L297 16L296 15M326 19L330 16L326 19M306 16L307 17L306 16M279.333 18.6667L279.667 19.3333L279.333 18.6667M141 21L136 27L141 21M174 21L174 22L178 22L174 21M188 21L189 22L188 21M280.667 21.3333L281.333 21.6667L280.667 21.3333z"/>
<path style="fill:#513f5c; stroke:none;" d="M256 23L257 24L256 23M51 26L51 27C54.4345 27.8033 55.6721 27.3021 57 24L51 26z"/>
<path style="fill:#896374; stroke:none;" d="M209 24L214 32L215 32L209 24M298 24L298 27L299 27L298 24M301 24L301 27L302 27L301 24M192 28L203 32L203 30L202 29L195 28L197 27L192 28M316 27L316 28L321 27L316 27M189.667 27.3333L190.333 27.6667L189.667 27.3333z"/>
<path style="fill:#513f5c; stroke:none;" d="M331.667 27.3333L332.333 27.6667L331.667 27.3333z"/>
<path style="fill:#896374; stroke:none;" d="M299 28L299 32L300 32L299 28z"/>
<path style="fill:#513f5c; stroke:none;" d="M70 31L70 32L79 34C76.7259 30.6839 73.8245 30.4254 70 31M275 32L275 33L286 33C282.069 29.8597 279.563 31.4224 275 32M287 30L290 33L287 30M52 31L59 34L52 31M60 32L60 33L64 33L60 32z"/>
<path style="fill:#896374; stroke:none;" d="M204 32L207 35L204 32z"/>
<path style="fill:#513f5c; stroke:none;" d="M256 32L257 33L256 32M324 32L324 34L326 32L324 32M335 37L334 39L336 39L335 37M339 38L339 39C344.415 40.5664 348.683 42.7481 354 40L352 48L357 47L352 49L352 56L351 56L348 55L352 61L360 60L357 57L357 56L360 56L360 38L339 38z"/>
<path style="fill:#896374; stroke:none;" d="M307 39L308 43L312 39L307 39z"/>
<path style="fill:#513f5c; stroke:none;" d="M328 39L329 40L328 39z"/>
<path style="fill:#896374; stroke:none;" d="M359 40L360 41L359 40M168 41L171 45L168 41z"/>
<path style="fill:#513f5c; stroke:none;" d="M251 41L252 42L251 41z"/>
<path style="fill:#896374; stroke:none;" d="M191 44L192 45L191 44z"/>
<path style="fill:#513f5c; stroke:none;" d="M255.333 44.6667L255.667 45.3333L255.333 44.6667M320 47L323 50L323 46L320 47M15 47L16 48L15 47z"/>
<path style="fill:#896374; stroke:none;" d="M148.667 47.3333L149.333 47.6667L148.667 47.3333M171 47L172 48L171 47z"/>
<path style="fill:#513f5c; stroke:none;" d="M75 48L75 49L78 49L75 48z"/>
<path style="fill:#896374; stroke:none;" d="M194 48L195 49L194 48z"/>
<path style="fill:#513f5c; stroke:none;" d="M350 49L348 53L350 49z"/>
<path style="fill:#896374; stroke:none;" d="M144 50L144 52L146 52L144 50M271 50L271 54L272 54L271 50M359 51L359 54L360 54L359 51M0 52C0.000479715 56.3462 -0.872817 61.2638 3 64L2 52L0 52M257 56L258 59L259 59L259 56L257 56z"/>
<path style="fill:#513f5c; stroke:none;" d="M263 56L263 59L264 59L263 56M347 56L347 59L348 59L347 56z"/>
<path style="fill:#896374; stroke:none;" d="M357 56L357 57L360 57L357 56M279 57L279 61L280 61L279 57M16 59L16 62L17 62L16 59z"/>
<path style="fill:#513f5c; stroke:none;" d="M29 61L30 62L29 61M322 61C321.019 63.9847 319.034 66.1661 323 67L322 64L322 61z"/>
<path style="fill:#896374; stroke:none;" d="M13 63L13 64L15 67L16 67L13 63M260 63L264 73L265 73L260 63M0 64L0 68L4 70L0 70L0 92C4.55308 91.903 9.3288 91.802 11 87L8 88L8 87C10.6378 84.2721 6.23505 82.0554 5.3287 79.1158C3.33499 72.6494 8.01234 67.8002 0 64z"/>
<path style="fill:#513f5c; stroke:none;" d="M290.667 64.3333L291.333 64.6667L290.667 64.3333M316 64L319 72L320 72L316 64M311.333 67.6667L311.667 68.3333L311.333 67.6667M0 68L4 70L0 68z"/>
<path style="fill:#896374; stroke:none;" d="M259 68L260 72L261 72L259 68z"/>
<path style="fill:#513f5c; stroke:none;" d="M270 68L270 72L271 72L270 68M281 69L281 71L282 72L288 71L281 69M352 72L352 73L355 76L360 75L357 71L360 68L352 72M295 69L296 70L295 69M90 71L91 72L90 71M279 71L280 72L279 71M350.667 71.3333L351.333 71.6667L350.667 71.3333z"/>
<path style="fill:#896374; stroke:none;" d="M357 71L360 74L357 71M15 72L16 73L15 72z"/>
<path style="fill:#513f5c; stroke:none;" d="M24.6667 72.3333L25.3333 72.6667L24.6667 72.3333M312.333 72.6667L312.667 73.3333L312.333 72.6667M315 72L316 75L318 72L315 72M322 72L323 73L322 72z"/>
<path style="fill:#eb9e59; stroke:none;" d="M138 120L136 112L135 112L135 116L124 120C131.109 122.546 137.578 126.177 145 127.79C150.138 128.907 157.079 129.221 160 134C168.392 136.522 161.926 148.617 160 154L152 152L153 148L143 147L143 146L146 145L146 143L140 141C136.537 148.706 129.936 150.974 122 152L122 153L125 154L125 155C104.834 155.879 109.254 170.561 115 184L118 183L128 194C127.037 203.424 134.729 201.475 141 203L148 201C148.858 197.301 152.527 196.533 156 196L156 197L152 199L155 200L150 208C156.864 206.023 161.99 202.003 168 208L163 207L163 208L169 208C175.072 217.246 197.578 206.445 206.481 215.513C207.576 216.628 209.449 220.432 206.967 221.237C203.585 222.334 192.965 216.986 189 216.326C179.241 214.7 168.84 217 159 217C161.166 233.548 179.094 229.008 191 229L191 231C180.705 232.053 171.844 237.301 161.09 234.026C154.363 231.978 150.037 227.131 144 224L140 232L143 234L149 232C145.363 249.723 166.444 258.129 182 256.36C187.98 255.679 192.264 252.261 198 251L199 254L203 251C203.41 247.334 205.37 246.071 209 246C209.168 241.325 211.139 238.577 216 239L214 235L218 233L216 228C222.725 228.35 225.686 230.817 228 237L230 237L231 232L234 233L235 226C243.867 222.088 238.143 212.143 242 207L239 204C245.028 202.715 247.309 189.025 246 184L248 184L249.885 162L246 144L241 144C239.161 132.712 226.221 131.956 218 128L223 125L240 132L228 99L231 98C230.753 91.6139 232.102 85.6791 227.348 80.2994C222.428 74.7318 213.658 75.2526 207 74.9606C189.651 74.1998 175.392 72.8536 159 79.24C153.342 81.4442 145.709 80.4073 141.318 85.2276C138.353 88.483 135.758 101.622 136.509 106C137.479 111.647 142.051 114.524 138 120z"/>
<path style="fill:#513f5c; stroke:none;" d="M303 75L304 76L303 75M347 75L350 77L347 75M321 76L321 79L323 76L321 76M325 76L325 80L326 80L327 76L325 76M74 77L72 83L73 83L76 80L74 77z"/>
<path style="fill:#896374; stroke:none;" d="M258 78L259 84L260 84L258 78z"/>
<path style="fill:#513f5c; stroke:none;" d="M319.333 78.6667L319.667 79.3333L319.333 78.6667z"/>
<path style="fill:#896374; stroke:none;" d="M224 79L225 80L224 79z"/>
<path style="fill:#513f5c; stroke:none;" d="M280.667 79.3333L281.333 79.6667L280.667 79.3333M288 80L288 84L289 84L288 80z"/>
<path style="fill:#896374; stroke:none;" d="M16 82L20 84C19.386 81.1493 18.6973 81.1456 16 82z"/>
<path style="fill:#513f5c; stroke:none;" d="M344 82L344 83L352 83L344 82M32.6667 84.3333L33.3333 84.6667L32.6667 84.3333M344 87L344 88L352 89L348.954 98.5833L359 103L360 103L360 85L344 87z"/>
<path style="fill:#896374; stroke:none;" d="M15 87L15 88L21 88L15 87M26.6667 87.3333L27.3333 87.6667L26.6667 87.3333M254 87L255 88L254 87M78 88L80 91L80 88L78 88z"/>
<path style="fill:#513f5c; stroke:none;" d="M343 88L343 92L339 92L339 93L347 91L343 88z"/>
<path style="fill:#eb9e59; stroke:none;" d="M136 91L136 93L138 93L138 91L136 91z"/>
<path style="fill:#896374; stroke:none;" d="M0 95L0 233L3 232L6 239L6 240L3 246L4 246L8 232L6 228C16.862 233.926 15.3449 223.025 24 222L24 218L19 217L23 202L24 202L25 204L29 200L29 199L22 198L24 186L16 185L16 184L24 181L24 179C19.7559 175.155 21.0015 171.167 22 166L12 163L12 162L60 160L60 159C53.5494 155.081 55.8673 148.431 56 142C52.5086 144.162 52.3909 146.066 53 150L51 138C43.6157 137.01 43.24 132.132 41 126L40 126L40 130L38 130C36.8842 122.854 31.0339 122.562 25 121L25 120L31 120C30.2645 115.593 28.1582 114.893 24 116L24 114L18 113C21.4891 108.454 25.719 96.336 17.8318 93.3488C12.9308 91.4925 4.97467 94.161 0 95z"/>
<path style="fill:#513f5c; stroke:none;" d="M305 93L307 95L307 93L305 93M271 95L272 96L271 95M288 96L288 97L295 96L288 96M311 95L312 96L311 95M6 96L6 97L10 97L6 96z"/>
<path style="fill:#896374; stroke:none;" d="M24 96L24 105L27 96L24 96M28 96L30 98L30 96L28 96M77 96L78 97L77 96z"/>
<path style="fill:#513f5c; stroke:none;" d="M305 96L305 97L308 97L305 96M325.667 96.3333L326.333 96.6667L325.667 96.3333z"/>
<path style="fill:#896374; stroke:none;" d="M29 99L29 102L30 102L29 99z"/>
<path style="fill:#513f5c; stroke:none;" d="M336 101L336 104L337 104L336 101M8 103L9 104L8 103M15 103L16 104L15 103z"/>
<path style="fill:#896374; stroke:none;" d="M224 103L225 104L224 103z"/>
<path style="fill:#513f5c; stroke:none;" d="M4 111L5 112L4 111M16 111L17 112L16 111M0 112L1 113L0 112z"/>
<path style="fill:#eb9e59; stroke:none;" d="M129 115L132 113L129 115z"/>
<path style="fill:#513f5c; stroke:none;" d="M7 115L8 116L7 115z"/>
<path style="fill:#f1ebe8; stroke:none;" d="M191 115L191 119L192 119L193 115L191 115z"/>
<path style="fill:#513f5c; stroke:none;" d="M15 116L15 124L19 121L16 120L15 116M120 125L121 126L120 125z"/>
<path style="fill:#eb9e59; stroke:none;" d="M224 127L225 128L224 127z"/>
<path style="fill:#513f5c; stroke:none;" d="M156 139L156 140L154 142L158 140L158 139L157 136C151.093 134.445 134.828 121.981 128.832 130.379C126.738 133.312 132.324 135.16 134.247 135.918C140.302 138.305 149.642 140.032 156 139z"/>
<path style="fill:#896374; stroke:none;" d="M180 136L180 137L194 143L193 145L197 144L198 144L199 144L204 146L207 141C209.305 148.571 216.675 150.013 221 143L225 150C230.932 149.999 244.044 147.288 232.956 140.916C227.545 137.806 220.073 137.212 214 136L218 131C205.938 126.284 189.512 127.042 180 136z"/>
<path style="fill:#513f5c; stroke:none;" d="M196 136L193 134L192 134C193.347 137.757 196.22 138.524 200 139L199 142L213.105 146.508L222 143.596L231 147C227.119 139.226 218 137.637 210 137L211 133C205.751 131.75 199.169 130.819 196 136M10.6667 135.333L11.3333 135.667L10.6667 135.333M40 135L41 136L40 135z"/>
<path style="fill:#eb9e59; stroke:none;" d="M120 135L120 136L126 137L126 136L120 135z"/>
<path style="fill:#513f5c; stroke:none;" d="M355 140L358 147L360 136L355 140M16 138L16 142L17 142L16 138M24 138L25 139L24 138z"/>
<path style="fill:#896374; stroke:none;" d="M214 139L214 142L217 141L217 140L214 139z"/>
<path style="fill:#513f5c; stroke:none;" d="M30 141L33 144L33 140L30 141z"/>
<path style="fill:#eb9e59; stroke:none;" d="M134.333 140.667L134.667 141.333L134.333 140.667z"/>
<path style="fill:#513f5c; stroke:none;" d="M142 140L142 141L147 142L142 140z"/>
<path style="fill:#eb9e59; stroke:none;" d="M215 140L216 141L215 140z"/>
<path style="fill:#896374; stroke:none;" d="M142 141L143 142L142 141z"/>
<path style="fill:#513f5c; stroke:none;" d="M24.6667 143.333L25.3333 143.667L24.6667 143.333z"/>
<path style="fill:#f1ebe8; stroke:none;" d="M141 143L139 145L139 146L143 144L141 143z"/>
<path style="fill:#513f5c; stroke:none;" d="M148 143L151 145L148 143z"/>
<path style="fill:#eb9e59; stroke:none;" d="M255 144L256 147L264 147C261.717 143.134 259.047 143.907 255 144z"/>
<path style="fill:#896374; stroke:none;" d="M58 144L58 146L60 146L60 144L58 144z"/>
<path style="fill:#eb9e59; stroke:none;" d="M124 144L129 150L126 144L124 144z"/>
<path style="fill:#896374; stroke:none;" d="M216 144L217 145L216 144M240 144L241 145L240 144z"/>
<path style="fill:#f1ebe8; stroke:none;" d="M220.667 146.333L221.333 146.667L220.667 146.333z"/>
<path style="fill:#513f5c; stroke:none;" d="M23.3333 147.667L23.6667 148.333L23.3333 147.667M16 150L16 152L20 152C19.8759 155.759 20.7491 157.138 24 159L24 157L45 157L42 152L38 152C35.1405 143.003 22.7997 150.873 16 150z"/>
<path style="fill:#896374; stroke:none;" d="M141 147L142 148L141 147z"/>
<path style="fill:#513f5c; stroke:none;" d="M351 149C345.899 154.498 337.43 153.808 335 162L336 162L343 159L336 169L332 169L332 165L328 168L328 169C332.583 171.847 317.355 172.833 314 175L314 176L316 179L315 180L311 178C307.488 185.373 303.962 190.895 296.946 195.86C291.841 199.473 285.063 200.32 283 207L291 213C284.834 213.783 279.65 214.228 278 221L264 226L258 232L259 228L253 233L246 234L246 235C252.926 236.982 260.279 249.729 251 253L249 249C249.777 255.02 249.884 265.381 255.133 269.272C266.949 278.032 287.992 277.887 301.83 282.549C308.544 284.81 313.939 290.211 320.004 293.62C331.312 299.977 347.344 307.001 360 310L360 217L352 216L348 220L345 216L348 224L344 236L336 235C329.093 237.627 326.688 234.853 320 233L320 231C328.778 228.254 332.829 225.331 335 216L336 218L337 218L336 215L341 214L333 204L337 206L342 202L349 194L347 192L347 191L349 184L346 184C346.144 171.871 360.764 172.64 358 159L360 150L358 153L351 149z"/>
<path style="fill:#eb9e59; stroke:none;" d="M256 169L254 168L248 200C266.111 198.78 267 164.294 267 151L264 153C254.63 143.439 256.1 163.992 256 169z"/>
<path style="fill:#896374; stroke:none;" d="M92 152L92 159L93 159L92 152z"/>
<path style="fill:#513f5c; stroke:none;" d="M16.3333 155.667L16.6667 156.333L16.3333 155.667z"/>
<path style="fill:#896374; stroke:none;" d="M358 159C359.454 172.364 346.044 171.713 346 184L349 184L347 191L347 192L349 194L342 202L337 206L333 204C331.846 210.865 338.244 209 341 214L336 215L337 217L337 218L336 218L335 216C332.016 225.068 328.398 227.411 320 231L320 233C326.519 235.59 329.286 238.68 336 235L344 236L348 224L345 216L348 220L352 216L360 217C360 208.006 363.182 190.398 358 183C361.162 178.826 362.136 162.614 358 159M93 160L93 163L94 163L93 160z"/>
<path style="fill:#513f5c; stroke:none;" d="M2 161L2 163L4 163L2 161z"/>
<path style="fill:#896374; stroke:none;" d="M157 161L150 173C154.052 170.895 158.111 165.747 157 161z"/>
<path style="fill:#513f5c; stroke:none;" d="M7.66667 162.333L8.33333 162.667L7.66667 162.333z"/>
<path style="fill:#f1ebe8; stroke:none;" d="M200.333 166.667L200.667 167.333L200.333 166.667M221 168L224 166L221 168M205 167L205 178L209 177C208.731 172.627 208.91 169.543 205 167M177 176C175.557 163.092 163.611 175.84 177 176z"/>
<path style="fill:#896374; stroke:none;" d="M248 168L249 169L248 168M148 175C141.855 186.744 143.758 191.881 157 191L154 188L154 187L159 192C165.214 189.352 173.19 191.389 177 185L194 190C190.953 183.699 186.084 185.06 180 185L183 183L183 182C179.31 182.596 175.656 185.792 171.989 185.463C163.742 184.723 158.89 176.728 152 187L148 184L148 175M319 175L320 176L319 175z"/>
<path style="fill:#eb9e59; stroke:none;" d="M251.667 176.333L252.333 176.667L251.667 176.333z"/>
<path style="fill:#513f5c; stroke:none;" d="M350 176L352 178L352 176L350 176M359 182L358 184L360 184L359 182z"/>
<path style="fill:#896374; stroke:none;" d="M24 183L25 184L24 183z"/>
<path style="fill:#513f5c; stroke:none;" d="M157 184L157 185L165 187C163.593 182.998 160.784 182.969 157 184M180 183L180 185L188 185L180 183z"/>
<path style="fill:#896374; stroke:none;" d="M184 183L184 184L187 184L184 183z"/>
<path style="fill:#513f5c; stroke:none;" d="M146 186L147 187L146 186z"/>
<path style="fill:#eb9e59; stroke:none;" d="M152 187L153 188L152 187z"/>
<path style="fill:#896374; stroke:none;" d="M324 195L329 192L328 195C334.176 196.664 335.711 192.554 336 187C329.949 187.147 326.716 189.594 324 195M344 187L344 192L345 192L344 187z"/>
<path style="fill:#513f5c; stroke:none;" d="M149 189L150 190L149 189M350 196L350 197L354 195L350 196M359 198L359 201L360 201L359 198z"/>
<path style="fill:#896374; stroke:none;" d="M156 199L157 200L156 199z"/>
<path style="fill:#513f5c; stroke:none;" d="M345 201L348 199L345 201M16 201L19 203L16 201z"/>
<path style="fill:#eb9e59; stroke:none;" d="M137.333 205.667L137.667 206.333L137.333 205.667z"/>
<path style="fill:#896374; stroke:none;" d="M327 205L328 206L327 205M324.667 206.333L325.333 206.667L324.667 206.333z"/>
<path style="fill:#eb9e59; stroke:none;" d="M145 207L144 209L145 207z"/>
<path style="fill:#513f5c; stroke:none;" d="M354 215L357 211L354 215M142 215L142 217L165 216C160.612 210.236 147.55 211.892 142 215M168 215L169 216L168 215M195 215L194 217L195 215M197 216L197 217L204 217L197 216M343 216L344 217L343 216z"/>
<path style="fill:#896374; stroke:none;" d="M227 220L228 221L227 220M352 221L352 223L355 223L355 221L352 221M221 224L226 226L226 222L221 224M22 224L24 228L25 228L22 224z"/>
<path style="fill:#513f5c; stroke:none;" d="M0.333333 225.667L0.666667 226.333L0.333333 225.667z"/>
<path style="fill:#896374; stroke:none;" d="M18 228L19 229L18 228z"/>
<path style="fill:#513f5c; stroke:none;" d="M2 229L2 231L4 231L4 229L2 229M159 229L162 231L162 230L159 229M247 230L248 231L247 230z"/>
<path style="fill:#896374; stroke:none;" d="M151 231L152 232L151 231z"/>
<path style="fill:#513f5c; stroke:none;" d="M165 231L165 232L176 233L165 231z"/>
<path style="fill:#896374; stroke:none;" d="M213 231L214 234L215 234L216 231L213 231z"/>
<path style="fill:#eb9e59; stroke:none;" d="M223 231L224 232L223 231z"/>
<path style="fill:#896374; stroke:none;" d="M10 232L10 234L12 234L12 232L10 232z"/>
<path style="fill:#eb9e59; stroke:none;" d="M223.333 234.667L223.667 235.333L223.333 234.667z"/>
<path style="fill:#896374; stroke:none;" d="M0.333333 238.667L0.666667 239.333L0.333333 238.667z"/>
<path style="fill:#513f5c; stroke:none;" d="M236 238C234.458 250.2 238.102 263.058 235.251 275C229.527 298.976 211.374 314.185 224 339L225 339L225 335L231 332L230 337L231 338L236 339L236 324L239 320L240 320L240 324L258 328L270 327L270 325C256.973 324.511 255.794 317.931 248.211 309.228C246.062 306.763 243.304 305.479 241 308L240 308C240 286.043 250.599 257.516 236 238M245 239L245 240L248 241L245 239z"/>
<path style="fill:#896374; stroke:none;" d="M206 240L207 241L206 240z"/>
<path style="fill:#513f5c; stroke:none;" d="M244 243L244 244L247 244L244 243M247.333 245.667L247.667 246.333L247.333 245.667M227 247L228 248L227 247M224.333 248.667L224.667 249.333L224.333 248.667z"/>
<path style="fill:#eb9e59; stroke:none;" d="M229 254L218 263L217 267C209.94 267.649 208.145 274.624 202.906 278.391C197.344 282.39 181.528 285.351 175 284L176 288C169.864 290.685 170.536 294.062 171 300C167.709 300 159 303.541 159 299L161 301C160.504 296.878 155.74 296.297 152 296L152 297L154 299C150.431 299.765 150.89 301.941 152 305L149 305L149 306L150 312L154 313L154 314L151 313C153.704 317.138 158.462 319.117 161.413 323.09C166.08 329.371 173.725 352.013 184.985 350.964C190.853 350.417 198.372 337.128 202.3 332.907C216.888 317.227 227.626 297.691 230.285 276C231.044 269.804 232.174 259.482 229 254z"/>
<path style="fill:#896374; stroke:none;" d="M7 256L8 257L7 256M313 262L317 263L318 259L317 258L313 262M8 266L13 265L8 266M112 264L113 267L112 264M65 277C56.689 275.974 46.2094 283.208 39 287L39 288L43 288L43 289L26 294L26 295L32 293L32 298L28 298L28 297L31 296L31 295C21.0601 296.507 0.397838 301.85 0 314L8 314C14.3984 308.6 15.6388 320.578 16 325L17 325L17 315L18 315L20 351L21 351L21 344L22 344L22 352L23 352L24 342L25 342L24 354C30.7057 358.165 24.2504 361.499 19 361L16 364L16 365C22.406 368.952 16.7801 377.398 20.9923 382.397C24.4305 386.477 38.9875 384 44 384L46 379L45 382L48 383L48 384L45 384L45 385C50.8549 383.057 49 375.129 49 370L45 373L45 363L48 365L46 360L46 359L50 354L50 338L51 338L51 341L52 341L52 316L51 316L48 329L49 308L53 306L54 306L54 300L45 300L45 299L50 299L50 298L38 297L38 298L40 300L32 301L32 300L37 299L37 298C29.573 291.355 45.0887 293.795 49 294L49 293L44 292L44 291L62 288L62 287L44 289L44 288C59.3575 281.695 79.6818 282.258 96 284L98 278L94 281L88 279L88 277L93 275L93 269C87.1699 267.39 66.0855 269.585 65 277M109 269L114 278L109 269M116 271L117 275L118 275L116 271z"/>
<path style="fill:#513f5c; stroke:none;" d="M75 274L75 275L82 275L81 272L75 274M259 274L259 276L261 276L261 274L259 274M85 275L85 277L87 277L87 275L85 275z"/>
<path style="fill:#5094a2; stroke:none;" d="M264 276L265 281L273 285C273.611 279.277 269.331 276.402 264 276z"/>
<path style="fill:#896374; stroke:none;" d="M106 277C106 291.339 119.596 298.268 117 314L110 305L108 305L102 318L101 318L104 304C99.6247 307.327 99.5671 315.107 101 320L98 324C113.295 323.99 120.572 313.074 133 306L130 298L129 298L129 302C126.317 299.317 121.539 289.885 126 291L122 288L122 287L121 279L120 279L126 304L112 284L111 284L112 290L106 277z"/>
<path style="fill:#513f5c; stroke:none;" d="M263 277L261 281C263.785 280.266 264.832 279.471 263 277z"/>
<path style="fill:#896374; stroke:none;" d="M265 279L266 280L265 279z"/>
<path style="fill:#513f5c; stroke:none;" d="M272 279L272 280L277 283L278 280L272 279M280 279L281 280L280 279M65.6667 280.333L66.3333 280.667L65.6667 280.333z"/>
<path style="fill:#eb9e59; stroke:none;" d="M196 280L197 281L196 280z"/>
<path style="fill:#513f5c; stroke:none;" d="M242 280L242 283L244 280L242 280z"/>
<path style="fill:#5094a2; stroke:none;" d="M253 280C249.265 295.694 262.062 310.191 264 325L273 324L262 294L264 293L267 294L266 289L261 290L256 280L253 280z"/>
<path style="fill:#896374; stroke:none;" d="M273.333 280.667L273.667 281.333L273.333 280.667z"/>
<path style="fill:#513f5c; stroke:none;" d="M278 282L280 284L280 282L278 282M282 284L283 285L282 284z"/>
<path style="fill:#896374; stroke:none;" d="M78 285L78 286L82 289L76 304L77 304L77 301L78 301L78 312L77 312L76 307L75 307L75 311L74 311L74 308L73 308L74 319L75 319L77 314L78 314L77 325L74 320L73 320L73 336L74 336L77 327L75 329L75 339L76 339L76 333L77 333C77.889 338.388 78.0481 343.906 73 347L73 349L78 349C76.3925 351.444 75.413 351.662 73 350L72 350L72 361L73 361L74 358L76 358L76 368L71 368L72 374L73 374L74 371C75.7642 376.567 77.3792 382.795 70 384L70 385C77.6523 385 100.964 388.763 106 383L112 384L110 382L110 381L112 377L106 378L107 374L112 374L113 364L111 362L107 362L111 351L111 350L108 345L105 346L108 335C104.525 334.19 104.263 331.283 104 328L91 327L91 352L90 352C89.283 332.073 84.4452 314.705 96 297L92 298L93 288L78 285z"/>
<path style="fill:#5094a2; stroke:none;" d="M241 285L240 304L244 306C244.137 299.338 245.893 290.242 241 285z"/>
<path style="fill:#513f5c; stroke:none;" d="M267 285L266 288L267 285M283 285L283 286L292 291C290.568 286.991 286.991 285.762 283 285M297 285L301 288L297 285z"/>
<path style="fill:#5094a2; stroke:none;" d="M44 291L44 292L50 292L50 293C47.2004 293.328 35.2343 292.046 34.1759 293.638C32.5319 296.111 36.3229 297.389 38.0193 297.417C44.0575 297.519 49.96 297.476 56 297C50.772 309.338 52.8573 322.98 51.946 335.985C51.3723 344.173 47.9512 351.439 48.0571 360.004C48.1618 368.472 50.0107 376.554 48 385C53.1317 385 65.2588 387.249 69.3966 383.972C73.0103 381.11 70.8267 370.249 71.4282 366C73.6302 350.448 73.6605 333.72 73.6605 318C73.6605 311.168 71.5166 302.887 76 297C76.1189 292.796 78.4334 290.898 82 289C74.7788 281.409 52.4351 287.564 44 291z"/>
<path style="fill:#896374; stroke:none;" d="M101 286L101 288L103 288L103 286L101 286z"/>
<path style="fill:#5094a2; stroke:none;" d="M122.667 287.333L123.333 287.667L122.667 287.333z"/>
<path style="fill:#513f5c; stroke:none;" d="M87 288L88 289L87 288z"/>
<path style="fill:#5094a2; stroke:none;" d="M101 288L90 323C104.334 324.762 104.381 298.931 103 288L101 288z"/>
<path style="fill:#896374; stroke:none;" d="M132 288L133 289L132 288z"/>
<path style="fill:#5094a2; stroke:none;" d="M276 289L276 290L283 293L281 290L286 290L276 289z"/>
<path style="fill:#896374; stroke:none;" d="M95 296L99 289C95.2508 290.218 94.694 292.195 95 296z"/>
<path style="fill:#513f5c; stroke:none;" d="M302 289L302 291L304 291L302 289M76 297L74 311L75 311L75 307L76 307L77 312L78 312L78 301L77 301L77 304L76 304L81 290C77.1379 291.162 75.8585 292.979 76 297z"/>
<path style="fill:#5094a2; stroke:none;" d="M124 290L129 302L124 290M271.333 290.667L271.667 291.333L271.333 290.667M287 290L288 291L287 290M40.3333 291.667L40.6667 292.333L40.3333 291.667z"/>
<path style="fill:#896374; stroke:none;" d="M239.333 291.667L239.667 292.333L239.333 291.667z"/>
<path style="fill:#5094a2; stroke:none;" d="M288 291C292.003 310.498 290 329.24 290 349L289 349L289 347L288 347L292.594 372L293 387L293 388L313 388C309.887 374.924 313.517 362.372 314.559 349.83C314.986 344.681 312.322 341.489 314 336C308.619 329.128 308.714 308.029 308 299L309 299L309 301L310 301C309.434 293.841 304.015 294.005 298 294L298 293L300 293L288 291z"/>
<path style="fill:#513f5c; stroke:none;" d="M48.6667 292.333L49.3333 292.667L48.6667 292.333M54 294L59 293L54 294z"/>
<path style="fill:#896374; stroke:none;" d="M126 292L127 293L126 292z"/>
<path style="fill:#5094a2; stroke:none;" d="M31 293L25 295L25 296L31 295L31 296L28 297L28 298L32 298L31 293z"/>
<path style="fill:#513f5c; stroke:none;" d="M243 293L244 294L243 293M306.667 293.333L307.333 293.667L306.667 293.333M66 294L67 295L66 294z"/>
<path style="fill:#5094a2; stroke:none;" d="M96.3333 294.667L96.6667 295.333L96.3333 294.667z"/>
<path style="fill:#896374; stroke:none;" d="M127 294L128 295L127 294z"/>
<path style="fill:#513f5c; stroke:none;" d="M262 294L263 297L264 297L265 294L262 294M283 294L283 301L290 299L289 294L283 294z"/>
<path style="fill:#5094a2; stroke:none;" d="M82 295L83 296L82 295z"/>
<path style="fill:#513f5c; stroke:none;" d="M246 295L247 296L246 295M253 295L254 296L253 295M268 295L271 299L271 295L268 295z"/>
<path style="fill:#896374; stroke:none;" d="M128 296L129 297L128 296M289 296L290 297L289 296z"/>
<path style="fill:#5094a2; stroke:none;" d="M311 296L312 297L311 296z"/>
<path style="fill:#896374; stroke:none;" d="M51 297L52 298L51 297z"/>
<path style="fill:#513f5c; stroke:none;" d="M45 299L45 300C49.5284 300.181 53.4185 301.373 56 297L45 299z"/>
<path style="fill:#5094a2; stroke:none;" d="M82.3333 297.667L82.6667 298.333L82.3333 297.667z"/>
<path style="fill:#513f5c; stroke:none;" d="M32 300L32 301L40 298L32 300z"/>
<path style="fill:#5094a2; stroke:none;" d="M95 298L94 300L96 300L95 298z"/>
<path style="fill:#896374; stroke:none;" d="M97 298L98 299L97 298z"/>
<path style="fill:#513f5c; stroke:none;" d="M324 298L327 301L324 298z"/>
<path style="fill:#5094a2; stroke:none;" d="M328 298C331.001 309.163 342.607 303.706 348.471 311.189C354.313 318.642 347.064 331.958 346 340L344 339L335 388L357 389L357 388L353 368C343.543 365.689 352.536 359.015 353.441 353.961C354.325 349.032 352.388 345.063 354.194 340C356.503 333.524 361.676 325.238 359.682 318.129C356.919 308.279 337.242 298.832 328 298z"/>
<path style="fill:#896374; stroke:none;" d="M332 298L333 299L332 298M96 300L97 301L96 300z"/>
<path style="fill:#513f5c; stroke:none;" d="M265 300L266 301L265 300M328 300L329 301L328 300z"/>
<path style="fill:#896374; stroke:none;" d="M336 300L337 301L336 300z"/>
<path style="fill:#513f5c; stroke:none;" d="M19 301L19 302L22 302L19 301z"/>
<path style="fill:#896374; stroke:none;" d="M74 301L74 304L75 304L74 301z"/>
<path style="fill:#513f5c; stroke:none;" d="M266.333 301.667L266.667 302.333L266.333 301.667M281.667 301.333L282.333 301.667L281.667 301.333M311 301L310 307L311 307L311 301M313.333 301.667L313.667 302.333L313.333 301.667z"/>
<path style="fill:#896374; stroke:none;" d="M338.667 301.333L339.333 301.667L338.667 301.333z"/>
<path style="fill:#5094a2; stroke:none;" d="M129 302L129 304L131 304L129 302z"/>
<path style="fill:#896374; stroke:none;" d="M240 302L241 303L240 302z"/>
<path style="fill:#513f5c; stroke:none;" d="M245 302L247 305L245 302z"/>
<path style="fill:#896374; stroke:none;" d="M341 302L342 303L341 302z"/>
<path style="fill:#513f5c; stroke:none;" d="M36.6667 303.333L37.3333 303.667L36.6667 303.333M64 303C63.0239 308.765 58.8379 320.489 64 325L64 303M327.667 303.333L328.333 303.667L327.667 303.333z"/>
<path style="fill:#896374; stroke:none;" d="M342.667 303.333L343.333 303.667L342.667 303.333z"/>
<path style="fill:#5094a2; stroke:none;" d="M52 304L52 307L53 307L52 304z"/>
<path style="fill:#896374; stroke:none;" d="M73 304L74 305L73 304z"/>
<path style="fill:#513f5c; stroke:none;" d="M122.333 304.667L122.667 305.333L122.333 304.667z"/>
<path style="fill:#eb9e59; stroke:none;" d="M148 304L149 305L148 304z"/>
<path style="fill:#896374; stroke:none;" d="M240 304L240 308L241 308L243 305L240 304z"/>
<path style="fill:#513f5c; stroke:none;" d="M329 304L329 306L331 306L331 304L329 304z"/>
<path style="fill:#896374; stroke:none;" d="M344.667 304.333L345.333 304.667L344.667 304.333z"/>
<path style="fill:#5094a2; stroke:none;" d="M130 305L131 306L130 305z"/>
<path style="fill:#896374; stroke:none;" d="M346.667 305.333L347.333 305.667L346.667 305.333z"/>
<path style="fill:#513f5c; stroke:none;" d="M50 306C47.5816 312.623 46.1059 322.177 48 329L54 306L50 306M124.667 306.333L125.333 306.667L124.667 306.333M272 306L274 311L272 306M289 306L290 307L289 306z"/>
<path style="fill:#896374; stroke:none;" d="M348 306L348 307L353 312L356 311L356 315L360 316C359.762 308.826 354.289 307.49 348 306z"/>
<path style="fill:#513f5c; stroke:none;" d="M11 308L11 309L18 311L15 316C21.1483 311.656 18.1862 306.268 11 308M256 307L257 308L256 307M121 308L122 309L121 308M342 308L342 309L345 310L342 308z"/>
<path style="fill:#896374; stroke:none;" d="M53 309L54 310L53 309z"/>
<path style="fill:#eb9e59; stroke:none;" d="M148 309L149 310L148 309z"/>
<path style="fill:#5094a2; stroke:none;" d="M6.66667 311.333L7.33333 311.667L6.66667 311.333M16 363L19 360C25.0794 362.964 31.3935 356.974 24 354L25 342L24 342L23 352L22 352L22 344L21 344L20 359C16.6658 347.724 18.9539 335.472 16.4244 324C15.7347 320.872 15.4872 313.995 12.4552 312.137C7.09621 308.852 7.71331 320.775 8.03935 323C10.0458 336.692 11.8391 349.819 16 363z"/>
<path style="fill:#896374; stroke:none;" d="M92 311L93 312L92 311z"/>
<path style="fill:#5094a2; stroke:none;" d="M254.667 311.333L255.333 311.667L254.667 311.333z"/>
<path style="fill:#513f5c; stroke:none;" d="M287 312L287 313L290 314L290 311L287 312M301 311L300 334C304.977 330.204 303.192 316.211 301 311M346 311L346 312L350 314L346 311M354 311L356 314L356 311L354 311z"/>
<path style="fill:#5094a2; stroke:none;" d="M0 332L4 330L5 336C8.4285 332.881 6.34038 316.535 5 312C-2.4549 315.164 0 325.13 0 332z"/>
<path style="fill:#513f5c; stroke:none;" d="M75 312L76 313L75 312M271 312L272 313L271 312z"/>
<path style="fill:#896374; stroke:none;" d="M302 312L304 320L302 312z"/>
<path style="fill:#513f5c; stroke:none;" d="M311 312L312 313L311 312z"/>
<path style="fill:#896374; stroke:none;" d="M91 313L91 316L92 316L91 313z"/>
<path style="fill:#5094a2; stroke:none;" d="M256 313L257 316L256 313z"/>
<path style="fill:#513f5c; stroke:none;" d="M6 314L6 320L7 320L8 314L6 314M77 314C74.7351 317.952 72.7126 321.896 77 325L77 314z"/>
<path style="fill:#896374; stroke:none;" d="M225 319L223 324L231 321L231 320L228 320L231 317C228.303 313.315 225.2 314.597 225 319z"/>
<path style="fill:#513f5c; stroke:none;" d="M17 315L18 336L19 336L17 315M113 315L115 318L113 315M313 315L313 318L315 318L315 315L313 315M331 315L332 334L333 334L331 315z"/>
<path style="fill:#896374; stroke:none;" d="M63 316L63 323L64 323L63 316z"/>
<path style="fill:#513f5c; stroke:none;" d="M311 316L312 317L311 316z"/>
<path style="fill:#896374; stroke:none;" d="M90 317L91 318L90 317M139 317L139 320L140 320L139 317z"/>
<path style="fill:#eb9e59; stroke:none;" d="M224.333 317.667L224.667 318.333L224.333 317.667M229.667 317.333L230.333 317.667L229.667 317.333z"/>
<path style="fill:#513f5c; stroke:none;" d="M275.333 317.667L275.667 318.333L275.333 317.667M347 317L347 322L349 317L347 317z"/>
<path style="fill:#f1ebe8; stroke:none;" d="M228 320L231 318L228 320z"/>
<path style="fill:#896374; stroke:none;" d="M231 318L232 319L231 318z"/>
<path style="fill:#513f5c; stroke:none;" d="M261.333 318.667L261.667 319.333L261.333 318.667M289.333 318.667L289.667 319.333L289.333 318.667z"/>
<path style="fill:#896374; stroke:none;" d="M89 319L89 323L90 323L89 319z"/>
<path style="fill:#513f5c; stroke:none;" d="M100 319L101 320L100 319z"/>
<path style="fill:#eb9e59; stroke:none;" d="M230 319L231 320L230 319z"/>
<path style="fill:#513f5c; stroke:none;" d="M287 319L288 320L287 319z"/>
<path style="fill:#896374; stroke:none;" d="M6 320L5 336L4 330L3 330L4 335C-0.701261 336.56 0.00168498 340.633 0 345C-0.0033958 353.801 -4.92798 382.56 10 375L6 380L7 384L8 384L12 375L12 372L12 371L10 367L15 367L16 362L8 336L9 332L7 327L8 327L8 330L9 330L8 320L6 320M239 320L236 326L239 320z"/>
<path style="fill:#513f5c; stroke:none;" d="M274 320L275 328L277 328L274 320z"/>
<path style="fill:#896374; stroke:none;" d="M150.667 321.333L151.333 321.667L150.667 321.333z"/>
<path style="fill:#513f5c; stroke:none;" d="M261.667 321.333L262.333 321.667L261.667 321.333M7.33333 322.667L7.66667 323.333L7.33333 322.667M215 322L216 325L215 322z"/>
<path style="fill:#5094a2; stroke:none;" d="M240 322L241 323L240 322z"/>
<path style="fill:#896374; stroke:none;" d="M90 323L90 324L94 324L90 323z"/>
<path style="fill:#5094a2; stroke:none;" d="M123 323L122 337L121 337C119.986 324.153 111.056 321.389 110.473 336C109.823 352.275 112 369.527 112 386L133 386L134 352L134 340L125 323L123 323M236 339L234 338L234 347L236 346L237 387L248 385L246 387L246 388L256.671 385.556L257.039 370L258 333C261.232 332.465 259.74 328.126 257.505 326.495C254.778 324.506 239.859 322.797 237.755 325.278C234.931 328.606 236 334.968 236 339z"/>
<path style="fill:#513f5c; stroke:none;" d="M314 323L315 328L312 327L314 336L316 336L317 323L314 323M346.333 323.667L346.667 324.333L346.333 323.667M289 324L287 325C286.611 329.131 286.764 331.238 290 334L289 324z"/>
<path style="fill:#896374; stroke:none;" d="M62 325L62 330L63 330L64 325L62 325z"/>
<path style="fill:#5094a2; stroke:none;" d="M206 336C211.095 333.974 214.986 332.038 214 326C209.263 327.887 206.692 330.922 206 336z"/>
<path style="fill:#513f5c; stroke:none;" d="M359 326L359 330L360 330L359 326M7 327L9 332L7 327M76 327L73 343L76 342L73 346L73 347C78.5197 344.783 78.1689 338.087 77 333L76 333L76 339L75 339L76 327z"/>
<path style="fill:#896374; stroke:none;" d="M233 327L231 331L233 335L234 335L235 327L233 327z"/>
<path style="fill:#5094a2; stroke:none;" d="M260 327L261 328L260 327M263 327L264 328L263 327M265 327L267 329L267 327L265 327M234 328L234 334L235 334L234 328M261 328L261 332L262 332L261 328z"/>
<path style="fill:#896374; stroke:none;" d="M311 328L311 331L312 331L311 328M358 328L359 337C355.402 339.332 356.003 343.013 356 347L352 344L349 362L352 361L351 368L354 367L354 372L358 372L359 384L360 384C360 379.213 362.429 365.163 357 364C360.473 355.476 363.516 336.074 358 328z"/>
<path style="fill:#513f5c; stroke:none;" d="M2 330L0 336L4 335L2 330z"/>
<path style="fill:#896374; stroke:none;" d="M111 330L112 331L111 330z"/>
<path style="fill:#513f5c; stroke:none;" d="M211 334L211 335C216.324 334.543 217.346 338.082 220 342C221.244 337.421 219.431 334.858 217 331L211 334z"/>
<path style="fill:#5094a2; stroke:none;" d="M266 331L267 332L266 331z"/>
<path style="fill:#896374; stroke:none;" d="M62 332L62 339L64 332L62 332M356 332L357 333L356 332z"/>
<path style="fill:#513f5c; stroke:none;" d="M357 332C354.753 337.045 351.523 342.56 356 347L359 337L357 332z"/>
<path style="fill:#896374; stroke:none;" d="M151 333L152 334L151 333z"/>
<path style="fill:#513f5c; stroke:none;" d="M258 333C258.729 336.403 260.806 335.987 264 336L258 333M346.333 333.667L346.667 334.333L346.333 333.667M8.33333 334.667L8.66667 335.333L8.33333 334.667z"/>
<path style="fill:#896374; stroke:none;" d="M137 338L139 344L134 344L135 353L138 352L138 357L135 355C134.002 363.256 135.109 367.679 139 375L136 375L139 385L133 385L133 386L172 385L175 374C172.491 366.698 167.964 359.139 172 352L156 339L161 350C157.925 346.424 155.694 345.385 151 346C150.722 336.628 144.977 332.551 137 338z"/>
<path style="fill:#5094a2; stroke:none;" d="M204.333 334.667L204.667 335.333L204.333 334.667z"/>
<path style="fill:#896374; stroke:none;" d="M208 334L205 337L205 338L211 334L208 334M212 334L213 335L212 334z"/>
<path style="fill:#5094a2; stroke:none;" d="M186 362L192 368C194.932 366.355 204.707 357.845 196 358L196 354L200 350C209.733 349.353 219.217 344.241 216 334C200.396 336.814 191.512 348.01 186 362M340 334L338 340C341.332 339.286 341.591 336.762 340 334z"/>
<path style="fill:#896374; stroke:none;" d="M152 335L156 339L152 335z"/>
<path style="fill:#eb9e59; stroke:none;" d="M165 335L166 336L165 335z"/>
<path style="fill:#f1ebe8; stroke:none;" d="M170 335L172 337L172 335L170 335z"/>
<path style="fill:#513f5c; stroke:none;" d="M208 335L209 336L208 335z"/>
<path style="fill:#896374; stroke:none;" d="M216 335L217 336L216 335z"/>
<path style="fill:#513f5c; stroke:none;" d="M247 335L248 336L247 335z"/>
<path style="fill:#5094a2; stroke:none;" d="M165 336L168 339L165 336z"/>
<path style="fill:#513f5c; stroke:none;" d="M204 338L208 337L204 338M275 336L275 339L276 339L275 336z"/>
<path style="fill:#5094a2; stroke:none;" d="M284 336L286 339L284 336z"/>
<path style="fill:#513f5c; stroke:none;" d="M301 336L301 348L302 348L301 336z"/>
<path style="fill:#5094a2; stroke:none;" d="M319 336L319 339L321 336L319 336M265 337L263 344L272 342L272 338L265 337z"/>
<path style="fill:#513f5c; stroke:none;" d="M314 337L314 340L317 339L317 338L314 337z"/>
<path style="fill:#5094a2; stroke:none;" d="M328 337L329 338L328 337z"/>
<path style="fill:#513f5c; stroke:none;" d="M31 338L31 341L32 341L31 338M50 338L50 341L51 341L50 338z"/>
<path style="fill:#5094a2; stroke:none;" d="M103 338L101 341L104 342L103 338M200 338L201 339L200 338z"/>
<path style="fill:#513f5c; stroke:none;" d="M45 342L49 343L48 339L45 342M121 339L122 348L123 348L121 339z"/>
<path style="fill:#896374; stroke:none;" d="M132 339L133 340L132 339M134 339L134 341L136 341L136 339L134 339z"/>
<path style="fill:#eb9e59; stroke:none;" d="M168 339L169 340L168 339z"/>
<path style="fill:#5094a2; stroke:none;" d="M261 339L261 344L262 344L261 339z"/>
<path style="fill:#513f5c; stroke:none;" d="M289 339L286 341L290 344L289 339z"/>
<path style="fill:#5094a2; stroke:none;" d="M323 339L324 340L323 339M325 339L326 340L325 339M328 339L329 340L328 339z"/>
<path style="fill:#513f5c; stroke:none;" d="M18 340L19 359L20 359L18 340z"/>
<path style="fill:#eb9e59; stroke:none;" d="M170 340L172 342L170 340z"/>
<path style="fill:#5094a2; stroke:none;" d="M170 341L175 345L170 341M222 344L228 347L230 342L222 344z"/>
<path style="fill:#513f5c; stroke:none;" d="M332 341C330.957 347.063 328.316 357.409 333 362L334 341L332 341z"/>
<path style="fill:#896374; stroke:none;" d="M75 342L73 346L75 342z"/>
<path style="fill:#5094a2; stroke:none;" d="M273 342L272 344L274 344L273 342z"/>
<path style="fill:#513f5c; stroke:none;" d="M317 342L312 343C313.833 345.803 317.946 346.204 317 342z"/>
<path style="fill:#5094a2; stroke:none;" d="M341.333 342.667L341.667 343.333L341.333 342.667z"/>
<path style="fill:#896374; stroke:none;" d="M170 343L171 344L170 343z"/>
<path style="fill:#513f5c; stroke:none;" d="M10 344L10 347L11 347L10 344z"/>
<path style="fill:#5094a2; stroke:none;" d="M19 344L19 348L20 348L19 344z"/>
<path style="fill:#513f5c; stroke:none;" d="M216 344C212.082 347.959 212.907 351.772 213 357C216.448 354.479 216.956 347.992 216 344z"/>
<path style="fill:#5094a2; stroke:none;" d="M99 345L92 352L97 352L104 352L99 345M135 345L135 348L136 348L135 345M175.667 345.333L176.333 345.667L175.667 345.333z"/>
<path style="fill:#513f5c; stroke:none;" d="M258 352C261.768 350.616 262.695 348.956 263 345C258.161 345.377 256.742 347.274 258 352z"/>
<path style="fill:#5094a2; stroke:none;" d="M336 345L336 347L338 347L338 345L336 345M177 346L178 347L177 346z"/>
<path style="fill:#896374; stroke:none;" d="M235 346L235 352L236 352L235 346z"/>
<path style="fill:#513f5c; stroke:none;" d="M246 346L246 360L247 360L248 352L248 346L246 346M343.667 346.333L344.333 346.667L343.667 346.333M8 347L9 348L8 347z"/>
<path style="fill:#5094a2; stroke:none;" d="M149 347L148 350L149 347z"/>
<path style="fill:#513f5c; stroke:none;" d="M231 355L232 355L233 352L234 352L234 360L235 360L235 347C230.033 347.831 230.495 350.606 231 355M275 347L277 359L278 359L275 347z"/>
<path style="fill:#896374; stroke:none;" d="M102 348L103 349L102 348z"/>
<path style="fill:#5094a2; stroke:none;" d="M34.3333 349.667L34.6667 350.333L34.3333 349.667M43 349L44 350L43 349z"/>
<path style="fill:#513f5c; stroke:none;" d="M73 349C73.7955 352.712 77.2045 352.712 78 349L73 349z"/>
<path style="fill:#896374; stroke:none;" d="M111 349L112 350L111 349z"/>
<path style="fill:#5094a2; stroke:none;" d="M135.333 349.667L135.667 350.333L135.333 349.667M144.667 349.333L145.333 349.667L144.667 349.333z"/>
<path style="fill:#513f5c; stroke:none;" d="M196 354L196 358L197 358L198 355L200 357L201 357L211 350L196 354M301 349L302 380L303 380C303 370.434 306.306 357.456 301 349M342 349L343 350L342 349M11 351L12 352L11 351M134 351L133 359L135 359L135 355L138 357L138 352L134 351M287 352L290 376L291 376L293 375L290 351L287 352M359 351L360 352L359 351M30 352L31 353L30 352z"/>
<path style="fill:#896374; stroke:none;" d="M111 352L112 353L111 352z"/>
<path style="fill:#513f5c; stroke:none;" d="M122 352L123 376L125 376C124.84 368.962 126.354 357.748 122 352z"/>
<path style="fill:#5094a2; stroke:none;" d="M183 352L183 353L187 353L183 352M34 353L31 360L37 358C38.5644 360.079 39.2644 357.938 40 356L39 355L36 356L34 353z"/>
<path style="fill:#513f5c; stroke:none;" d="M45 353L45 355L47 355L45 353M48.3333 353.667L48.6667 354.333L48.3333 353.667M312 354L314 360L316 360L316 353L312 354M72.3333 354.667L72.6667 355.333L72.3333 354.667M153 354L155 357L155 354L153 354M0 355L0 358L1 358L0 355M90 355L90 361L91 361L90 355z"/>
<path style="fill:#5094a2; stroke:none;" d="M41 356L43 359L43 356L41 356z"/>
<path style="fill:#896374; stroke:none;" d="M291 356L291 366L292 366L291 356z"/>
<path style="fill:#513f5c; stroke:none;" d="M322.667 356.333L323.333 356.667L322.667 356.333M340 357L338 368L339 368L342 357L340 357M74 358L71 368L76 368L76 358L74 358M154.333 358.667L154.667 359.333L154.333 358.667z"/>
<path style="fill:#5094a2; stroke:none;" d="M359 358L357 364C360.331 363.286 360.591 360.762 359 358z"/>
<path style="fill:#513f5c; stroke:none;" d="M46.6667 359.333L47.3333 359.667L46.6667 359.333M214 359L215 360L214 359M258 359L259 360L258 359M19 360L20 361L19 360M186 360L187 361L186 360z"/>
<path style="fill:#896374; stroke:none;" d="M341 360L340 364L341 364L341 360M246 361L247 362L246 361z"/>
<path style="fill:#513f5c; stroke:none;" d="M351 361L347 363L352 369L351 361M14 362L15 367L12 366L10 367L12 371L12 372L10 375L17 371L17 384L21 384C19.6056 378.68 21.9835 366.682 16 365L16 364L18 363L14 362M29 362L29 368L30 368L29 362M134 362L133 364L135 364L134 362M326 362L328 368L329 368L326 362M45 363L45 373L49 370L49 364L45 363M186 363L186 364L190 366L186 363z"/>
<path style="fill:#896374; stroke:none;" d="M188 363L189 364L188 363z"/>
<path style="fill:#513f5c; stroke:none;" d="M262 363L257 364L258 370L263 368L262 363z"/>
<path style="fill:#5094a2; stroke:none;" d="M354 363L356 366L354 363z"/>
<path style="fill:#513f5c; stroke:none;" d="M60 364L60 368L61 368L60 364z"/>
<path style="fill:#896374; stroke:none;" d="M189 364L190 365L189 364z"/>
<path style="fill:#513f5c; stroke:none;" d="M277 364L277 371L278 371L277 364z"/>
<path style="fill:#896374; stroke:none;" d="M71 365L72 366L71 365z"/>
<path style="fill:#eb9e59; stroke:none;" d="M185 365L186 366L185 365z"/>
<path style="fill:#f1ebe8; stroke:none;" d="M182 370C191.699 373.841 186.998 361.54 182 370z"/>
<path style="fill:#eb9e59; stroke:none;" d="M187 365L189 367L187 365z"/>
<path style="fill:#896374; stroke:none;" d="M188 365L189 366L188 365M190 365L192 368L190 365z"/>
<path style="fill:#513f5c; stroke:none;" d="M196 365L195 367L197 367L196 365z"/>
<path style="fill:#896374; stroke:none;" d="M256.333 365.667L256.667 366.333L256.333 365.667z"/>
<path style="fill:#513f5c; stroke:none;" d="M314 365C310.691 372.81 308.779 387.635 320 388C319.69 382.321 320.348 373.086 314 371L314 365z"/>
<path style="fill:#5094a2; stroke:none;" d="M183 366L184 367L183 366z"/>
<path style="fill:#896374; stroke:none;" d="M303 366L304 367L303 366z"/>
<path style="fill:#513f5c; stroke:none;" d="M107 367L108 372L107 367M134 367L133 385L139 385L136 375L139 375L134 367z"/>
<path style="fill:#896374; stroke:none;" d="M175 367L176 368L175 367z"/>
<path style="fill:#5094a2; stroke:none;" d="M182 367L183 368L182 367M189 367L187 373L189 367z"/>
<path style="fill:#513f5c; stroke:none;" d="M245 367L245 370L247 367L245 367M352 367L354 369L354 367L352 367z"/>
<path style="fill:#eb9e59; stroke:none;" d="M182 368L183 369L182 368z"/>
<path style="fill:#513f5c; stroke:none;" d="M190 371L193 368L190 371z"/>
<path style="fill:#5094a2; stroke:none;" d="M184 374L186 372C176.05 369.859 174.462 388.164 181 383C181.755 389.251 196.988 387 202 387L202 386L195 386L199 368L184 374z"/>
<path style="fill:#513f5c; stroke:none;" d="M213 369L213 374L214 374L213 369M231 369L230 371L232 371L231 369M233 369L233 371L235 371L235 369L233 369M90.3333 370.667L90.6667 371.333L90.3333 370.667M111 370L112 371L111 370z"/>
<path style="fill:#eb9e59; stroke:none;" d="M182.667 370.333L183.333 370.667L182.667 370.333z"/>
<path style="fill:#513f5c; stroke:none;" d="M261.333 370.667L261.667 371.333L261.333 370.667M327 370L327 374L328 374L327 370M337 370L336 373L337 370z"/>
<path style="fill:#5094a2; stroke:none;" d="M16 371C11.7576 374.542 8.74101 378.429 8 384C16.7838 383.993 20.5339 379.561 16 371z"/>
<path style="fill:#513f5c; stroke:none;" d="M71 371L71 377L73 381L71 380L71 384C77.7711 382.824 76.0641 375.892 74 371L73 374L72 374L71 371z"/>
<path style="fill:#eb9e59; stroke:none;" d="M184 371L185 372L184 371z"/>
<path style="fill:#896374; stroke:none;" d="M188 373L191 372L188 373M13 372L14 373L13 372z"/>
<path style="fill:#eb9e59; stroke:none;" d="M186 372L187 373L186 372z"/>
<path style="fill:#513f5c; stroke:none;" d="M189 372L190 373L189 372M334 372L333 376L337 378L334 372M354 372L355 388L360 388L358 372L354 372z"/>
<path style="fill:#896374; stroke:none;" d="M60 373L58 384L59 384L60 379L61 379L61 384L62 384L60 373M122 373L122 376L123 376L122 373M184 373L184 374L187 374L184 373z"/>
<path style="fill:#513f5c; stroke:none;" d="M186 375L189 373L186 375M258 373L259 374L258 373M107 374L106 378L112 374L107 374M0 376L0 384L7 384L6 380L10 375L0 376z"/>
<path style="fill:#896374; stroke:none;" d="M71 375L72 376L71 375z"/>
<path style="fill:#513f5c; stroke:none;" d="M213 375L213 378L214 378L213 375M263 375L264 376L263 375M325 375L324 377L326 377L325 375M45 376L45 377L48 377L45 376z"/>
<path style="fill:#896374; stroke:none;" d="M72 376L72 381L73 381L72 376z"/>
<path style="fill:#513f5c; stroke:none;" d="M291 376L290 384L293 384L294 384L293 376L291 376z"/>
<path style="fill:#896374; stroke:none;" d="M337 376L338 377L337 376z"/>
<path style="fill:#513f5c; stroke:none;" d="M343 377C343.136 381.263 343.395 386.654 348 388L343 377M123.333 378.667L123.667 379.333L123.333 378.667M44 379L44 384L48 384L48 383L45 382L46 379L44 379M60 379L59 384L61 384L60 379z"/>
<path style="fill:#896374; stroke:none;" d="M122 379L123 380L122 379z"/>
<path style="fill:#513f5c; stroke:none;" d="M258 379L257 387L264 387L264 382L260 383L258 379M334 379L334 382L336 382L336 379L334 379z"/>
<path style="fill:#896374; stroke:none;" d="M257 380L258 381L257 380z"/>
<path style="fill:#513f5c; stroke:none;" d="M278 380L279 385L280 385L278 380z"/>
<path style="fill:#896374; stroke:none;" d="M354.333 380.667L354.667 381.333L354.333 380.667M356 380L357 381L356 380z"/>
<path style="fill:#513f5c; stroke:none;" d="M110.667 381.333L111.333 381.667L110.667 381.333M106 383L112 385L112 384L106 383z"/>
<path style="fill:#896374; stroke:none;" d="M122 383L123 384L122 383z"/>
<path style="fill:#513f5c; stroke:none;" d="M123.333 383.667L123.667 384.333L123.333 383.667z"/>
<path style="fill:#896374; stroke:none;" d="M179.333 383.667L179.667 384.333L179.333 383.667z"/>
<path style="fill:#513f5c; stroke:none;" d="M180 383L181 384L180 383M246 383L247 384L246 383z"/>
<path style="fill:#f1ebe8; stroke:none;" d="M0 384L0 424L360 424L360 389L0 384z"/>
<path style="fill:#eb9e59; stroke:none;" d="M16 384L16 385L21 385L16 384M22 384L22 385L45 385L22 384z"/>
<path style="fill:#896374; stroke:none;" d="M124 384L125 385L124 384z"/>
<path style="fill:#513f5c; stroke:none;" d="M214 384L214 386L216 386L216 384L214 384M232 384L230 385L230 386L232 384M234 384L236 387L236 384L234 384z"/>
<path style="fill:#896374; stroke:none;" d="M257.333 384.667L257.667 385.333L257.333 384.667z"/>
<path style="fill:#eb9e59; stroke:none;" d="M96 385L96 386L112 386L96 385M126 385L127 386L126 385M144.667 385.333L145.333 385.667L144.667 385.333z"/>
<path style="fill:#896374; stroke:none;" d="M176 385L177 386L176 385z"/>
<path style="fill:#513f5c; stroke:none;" d="M179.667 385.333L180.333 385.667L179.667 385.333M197.667 385.333L198.333 385.667L197.667 385.333M246 385L246 387L248 387L248 385L246 385M290 385L290 387L294 387L294 385L290 385z"/>
<path style="fill:#eb9e59; stroke:none;" d="M153 386L153 387L156 387L153 386M163 386L164 387L163 386M165 386L165 387L174 387L165 386z"/>
<path style="fill:#5094a2; stroke:none;" d="M174.667 386.333L175.333 386.667L174.667 386.333z"/>
<path style="fill:#eb9e59; stroke:none;" d="M176 386L177 387L176 386M179.667 386.333L180.333 386.667L179.667 386.333M202.667 386.333L203.333 386.667L202.667 386.333M206 386L206 387L212 387L206 386z"/>
<path style="fill:#896374; stroke:none;" d="M245 386L246 387L245 386z"/>
<path style="fill:#513f5c; stroke:none;" d="M279 386L280 387L279 386M281.667 386.333L282.333 386.667L281.667 386.333z"/>
<path style="fill:#896374; stroke:none;" d="M294 386L295 387L294 386z"/>
<path style="fill:#513f5c; stroke:none;" d="M302.667 386.333L303.333 386.667L302.667 386.333z"/>
<path style="fill:#896374; stroke:none;" d="M312 386L313 387L312 386z"/>
<path style="fill:#513f5c; stroke:none;" d="M340 386L340 388L342 388L342 386L340 386z"/>
<path style="fill:#896374; stroke:none;" d="M355 386L356 387L355 386z"/>
<path style="fill:#eb9e59; stroke:none;" d="M232 387L232 388L237 388L232 387M257 387L257 388L279 388L257 387M280 387L281 388L280 387z"/>
<path style="fill:#896374; stroke:none;" d="M313 387L314 388L313 387z"/>
<path style="fill:#513f5c; stroke:none;" d="M332.667 387.333L333.333 387.667L332.667 387.333z"/>
<path style="fill:#eb9e59; stroke:none;" d="M313 388L313 389L338 389L313 388M344 388L345 389L344 388z"/>
<path style="fill:#896374; stroke:none;" d="M357 388L357 389L360 389L357 388z"/>
<path style="fill:#eb9e59; stroke:none;" d="M25 392L26 393L25 392z"/>
<path style="fill:#896374; stroke:none;" d="M24 393L24 398L25 398L24 393z"/>
<path style="fill:#513f5c; stroke:none;" d="M25 393L25 412L27 412L27 405C40.0663 404.284 36.7725 393.034 25 393z"/>
<path style="fill:#896374; stroke:none;" d="M33 393L34 394L33 393M45 393L46 394L45 393z"/>
<path style="fill:#513f5c; stroke:none;" d="M39 412L52 407L56 412L49 393C42.4773 395.107 40.6129 405.969 39 412z"/>
<path style="fill:#896374; stroke:none;" d="M59 393L60 413L61 413L59 393z"/>
<path style="fill:#513f5c; stroke:none;" d="M60 393L60 412L62 412L62 404L72 412L68 404C73.8691 395.833 67.9469 393.023 60 393z"/>
<path style="fill:#896374; stroke:none;" d="M68 393L69 394L68 393z"/>
<path style="fill:#eb9e59; stroke:none;" d="M76 393L77 394L76 393z"/>
<path style="fill:#513f5c; stroke:none;" d="M77 393L77 412L88 412L88 411L79 410L79 404L86 404L86 402C81.1084 401.627 79.3732 399.892 79 395L88 395L77 393z"/>
<path style="fill:#896374; stroke:none;" d="M87 393L88 394L87 393z"/>
<path style="fill:#5094a2; stroke:none;" d="M93 393L94 394L93 393z"/>
<path style="fill:#513f5c; stroke:none;" d="M90 410C93.5157 412.663 102.961 412.879 101.508 406.09C100.705 402.342 88.1219 393.34 101 396C98.638 392.361 91.6358 392.434 91.6358 398.004C91.6358 406.197 105.168 408.477 90 410M106 393L106 412L109 412L108 404L118 404L118 412L120 412L120 393L118 393L118 402L108 401L108 393L106 393z"/>
<path style="fill:#896374; stroke:none;" d="M108 393L109 394L108 393z"/>
<path style="fill:#5094a2; stroke:none;" d="M117 393L118 394L117 393z"/>
<path style="fill:#eb9e59; stroke:none;" d="M120 393L121 394L120 393z"/>
<path style="fill:#896374; stroke:none;" d="M133 393L134 413L135 413L133 393z"/>
<path style="fill:#513f5c; stroke:none;" d="M134 393L134 412L136 412L136 403L137 403L146 412C140.369 402.985 141.021 402.418 145 393L136 401L136 393L134 393z"/>
<path style="fill:#896374; stroke:none;" d="M142 393L143 394L142 393M145 393L146 394L145 393z"/>
<path style="fill:#eb9e59; stroke:none;" d="M149 393L149 396L150 396L149 393z"/>
<path style="fill:#513f5c; stroke:none;" d="M150 393C150 397.55 148.635 404.811 151.028 408.852C153.879 413.667 161.373 412.411 163.821 407.941C166.08 403.817 165 397.549 165 393L162 394C162.439 397.959 159.949 418.469 153.028 406.851C150.872 403.233 152 397.064 152 393L150 393z"/>
<path style="fill:#896374; stroke:none;" d="M162 393L163 394L162 393M170 393L171 413L172 413L170 393z"/>
<path style="fill:#513f5c; stroke:none;" d="M171 393L171 412L173 412L173 396L174 396L180 412L182 412L189 396L190 412L192 412L192 393C184.687 394.209 184.695 403.315 180 408C179.024 402.331 176.947 394.86 171 393z"/>
<path style="fill:#896374; stroke:none;" d="M174 393L175 394L174 393z"/>
<path style="fill:#eb9e59; stroke:none;" d="M187 393L188 394L187 393z"/>
<path style="fill:#513f5c; stroke:none;" d="M202 393L196 412L199 407L212 412C210.565 405.798 208.7 395.109 202 393z"/>
<path style="fill:#896374; stroke:none;" d="M205 393L206 394L205 393z"/>
<path style="fill:#513f5c; stroke:none;" d="M216 393L216 412L218 412L218 404L229 412C225.95 401.381 229.809 393.011 216 393z"/>
<path style="fill:#eb9e59; stroke:none;" d="M225 393L226 394L225 393M240 393L241 394L240 393z"/>
<path style="fill:#513f5c; stroke:none;" d="M241 393L241 412L243 412L243 404L253 404L253 412L255 412L255 393L253 393C252.872 403.81 243.128 403.81 243 393L241 393z"/>
<path style="fill:#896374; stroke:none;" d="M243 393L243 401L244 401L243 393M252 393L252 401L253 401L252 393z"/>
<path style="fill:#5094a2; stroke:none;" d="M255 393L256 394L255 393z"/>
<path style="fill:#513f5c; stroke:none;" d="M265 393L259 412L262 407L275 412C273.565 405.798 271.7 395.109 265 393z"/>
<path style="fill:#896374; stroke:none;" d="M268 393L269 394L268 393M279 393L280 394L279 393z"/>
<path style="fill:#513f5c; stroke:none;" d="M279 412L281 412L281 397L294 412L294 393L292 393L292 408L283 393C276.553 395.14 279 406.367 279 412z"/>
<path style="fill:#896374; stroke:none;" d="M291 393L292 394L291 393z"/>
<path style="fill:#5094a2; stroke:none;" d="M294 393L294 412L295 412L294 393z"/>
<path style="fill:#896374; stroke:none;" d="M301 393L302 394L301 393z"/>
<path style="fill:#513f5c; stroke:none;" d="M298 409C300.385 412.679 307.967 413.353 309.248 407.945C310.363 403.242 295.312 393.894 309 396C306.571 392.566 298.854 392.189 299.466 398.029C300.028 403.397 312.321 411.844 298 409z"/>
<path style="fill:#896374; stroke:none;" d="M307 393L308 394L307 393z"/>
<path style="fill:#eb9e59; stroke:none;" d="M313 393L314 413L315 413L313 393z"/>
<path style="fill:#513f5c; stroke:none;" d="M314 393L314 412C317.44 412 321.763 412.607 324.867 410.821C337.956 403.289 322.438 393.006 314 393z"/>
<path style="fill:#896374; stroke:none;" d="M323 393L324 394L323 393z"/>
<path style="fill:#eb9e59; stroke:none;" d="M337.333 393.667L337.667 394.333L337.333 393.667z"/>
<path style="fill:#513f5c; stroke:none;" d="M338 393L332 412L335 407L348 412C346.604 405.968 344.442 395.08 338 393z"/>
<path style="fill:#896374; stroke:none;" d="M341 393L342 394L341 393z"/>
<path style="fill:#eb9e59; stroke:none;" d="M35 394L36 395L35 394z"/>
<path style="fill:#5094a2; stroke:none;" d="M49 394L50 395L49 394M70 394L71 395L70 394z"/>
<path style="fill:#896374; stroke:none;" d="M76 394L76 405L77 405L76 394M92 394L93 395L92 394z"/>
<path style="fill:#eb9e59; stroke:none;" d="M101 394L102 395L101 394z"/>
<path style="fill:#896374; stroke:none;" d="M117.333 394.667L117.667 395.333L117.333 394.667z"/>
<path style="fill:#5094a2; stroke:none;" d="M120.333 394.667L120.667 395.333L120.333 394.667z"/>
<path style="fill:#eb9e59; stroke:none;" d="M145 394L146 395L145 394M152 394L152 399L153 399L152 394M175 394L176 395L175 394M201 394L202 395L201 394M215.333 394.667L215.667 395.333L215.333 394.667z"/>
<path style="fill:#896374; stroke:none;" d="M226 394L227 395L226 394z"/>
<path style="fill:#eb9e59; stroke:none;" d="M255 394L256 395L255 394M264 394L265 395L264 394M278 394L279 395L278 394z"/>
<path style="fill:#896374; stroke:none;" d="M283 394L284 395L283 394z"/>
<path style="fill:#eb9e59; stroke:none;" d="M291 394L291 402L292 402L291 394M299 394L300 395L299 394z"/>
<path style="fill:#896374; stroke:none;" d="M325 394L326 395L325 394z"/>
<path style="fill:#5094a2; stroke:none;" d="M27 395L28 396L27 395z"/>
<path style="fill:#f1ebe8; stroke:none;" d="M27 402C38.2364 401.14 27.3966 389.923 27 402z"/>
<path style="fill:#896374; stroke:none;" d="M32 395L33 396L32 395z"/>
<path style="fill:#eb9e59; stroke:none;" d="M44 395L45 396L44 395z"/>
<path style="fill:#896374; stroke:none;" d="M47 395L46 397L47 395z"/>
<path style="fill:#f1ebe8; stroke:none;" d="M62 395L62 401C68.4436 400.498 68.3869 395.509 62 395z"/>
<path style="fill:#896374; stroke:none;" d="M67 395L69 397L67 395M79 395L80 396L79 395M91 395L92 396L91 395M94 395L95 396L94 395M99 395L100 396L99 395z"/>
<path style="fill:#5094a2; stroke:none;" d="M101 395L102 396L101 395M144 395L145 396L144 395z"/>
<path style="fill:#896374; stroke:none;" d="M162.333 395.667L162.667 396.333L162.333 395.667M175 395L176 396L175 395z"/>
<path style="fill:#eb9e59; stroke:none;" d="M186 395L187 396L186 395M192.333 395.667L192.667 396.333L192.333 395.667z"/>
<path style="fill:#5094a2; stroke:none;" d="M206 395L207 396L206 395z"/>
<path style="fill:#896374; stroke:none;" d="M218 395L218 400L219 400L218 395z"/>
<path style="fill:#f1ebe8; stroke:none;" d="M219 395L219 401C225.355 400.504 225.039 395.963 219 395z"/>
<path style="fill:#eb9e59; stroke:none;" d="M223 395L224 396L223 395z"/>
<path style="fill:#5094a2; stroke:none;" d="M227 395L228 396L227 395z"/>
<path style="fill:#eb9e59; stroke:none;" d="M240 395L240 398L241 398L240 395z"/>
<path style="fill:#5094a2; stroke:none;" d="M255 395L256 396L255 395z"/>
<path style="fill:#896374; stroke:none;" d="M264 395L265 396L264 395M269 395L270 396L269 395z"/>
<path style="fill:#eb9e59; stroke:none;" d="M284 395L285 396L284 395z"/>
<path style="fill:#5094a2; stroke:none;" d="M302 395L303 396L302 395z"/>
<path style="fill:#eb9e59; stroke:none;" d="M306 395L307 396L306 395z"/>
<path style="fill:#5094a2; stroke:none;" d="M316 395L316 410L317 410L316 395z"/>
<path style="fill:#f1ebe8; stroke:none;" d="M317 395L317 410C328.541 409.624 328.221 395.847 317 395z"/>
<path style="fill:#896374; stroke:none;" d="M322 395L323 396L322 395M326 395L327 396L326 395M342.333 395.667L342.667 396.333L342.333 395.667M33 396L34 397L33 396z"/>
<path style="fill:#5094a2; stroke:none;" d="M36 396L37 397L36 396z"/>
<path style="fill:#896374; stroke:none;" d="M44 396L45 397L44 396z"/>
<path style="fill:#eb9e59; stroke:none;" d="M47 396L46 398L47 396M50 396L51 397L50 396M67 396L68 397L67 396z"/>
<path style="fill:#5094a2; stroke:none;" d="M71 396L72 397L71 396M79 396L79 400L80 400L79 396z"/>
<path style="fill:#eb9e59; stroke:none;" d="M90 396L90 399L91 399L90 396z"/>
<path style="fill:#896374; stroke:none;" d="M93 396L93 399L94 399L93 396z"/>
<path style="fill:#eb9e59; stroke:none;" d="M100 396L101 397L100 396z"/>
<path style="fill:#896374; stroke:none;" d="M108 396L109 397L108 396z"/>
<path style="fill:#eb9e59; stroke:none;" d="M117 396L118 397L117 396M120 396L121 397L120 396z"/>
<path style="fill:#896374; stroke:none;" d="M140 396L141 397L140 396M143 396L144 397L143 396M149 396L149 399L150 399L149 396M173 396L174 397L173 396M186 396L187 397L186 396M188 396C189.255 401.273 187.127 409.841 192 413L192 412L188 396z"/>
<path style="fill:#eb9e59; stroke:none;" d="M203 396L204 397L203 396z"/>
<path style="fill:#896374; stroke:none;" d="M204 396L205 397L204 396z"/>
<path style="fill:#5094a2; stroke:none;" d="M224 396L225 397L224 396z"/>
<path style="fill:#896374; stroke:none;" d="M266.667 396.333L267.333 396.667L266.667 396.333z"/>
<path style="fill:#eb9e59; stroke:none;" d="M278.333 396.667L278.667 397.333L278.333 396.667M298.333 396.667L298.667 397.333L298.333 396.667z"/>
<path style="fill:#896374; stroke:none;" d="M301 396L302 397L301 396z"/>
<path style="fill:#eb9e59; stroke:none;" d="M323 396L324 397L323 396z"/>
<path style="fill:#896374; stroke:none;" d="M327 396L328 397L327 396z"/>
<path style="fill:#eb9e59; stroke:none;" d="M339 396L340 397L339 396z"/>
<path style="fill:#896374; stroke:none;" d="M340 396L341 397L340 396z"/>
<path style="fill:#eb9e59; stroke:none;" d="M33.3333 397.667L33.6667 398.333L33.3333 397.667z"/>
<path style="fill:#896374; stroke:none;" d="M36 397L37 398L36 397z"/>
<path style="fill:#f1ebe8; stroke:none;" d="M47 397L45 405L50 405L47 397z"/>
<path style="fill:#5094a2; stroke:none;" d="M50 397L51 398L50 397z"/>
<path style="fill:#eb9e59; stroke:none;" d="M68 397L68 400L69 400L68 397z"/>
<path style="fill:#896374; stroke:none;" d="M71.3333 397.667L71.6667 398.333L71.3333 397.667M117 397L118 398L117 397z"/>
<path style="fill:#5094a2; stroke:none;" d="M120 397L120 412L121 412L120 397z"/>
<path style="fill:#896374; stroke:none;" d="M139 397L140 398L139 397M142 397L143 398L142 397z"/>
<path style="fill:#eb9e59; stroke:none;" d="M173 397L174 398L173 397z"/>
<path style="fill:#5094a2; stroke:none;" d="M176 397L177 398L176 397z"/>
<path style="fill:#eb9e59; stroke:none;" d="M188.333 397.667L188.667 398.333L188.333 397.667z"/>
<path style="fill:#896374; stroke:none;" d="M200 397L201 398L200 397z"/>
<path style="fill:#f1ebe8; stroke:none;" d="M203 397L201 405L206 405L203 397z"/>
<path style="fill:#5094a2; stroke:none;" d="M204 397L205 398L204 397z"/>
<path style="fill:#eb9e59; stroke:none;" d="M207 397L208 398L207 397M215 397L215 412L216 412L215 397z"/>
<path style="fill:#896374; stroke:none;" d="M225.333 397.667L225.667 398.333L225.333 397.667z"/>
<path style="fill:#eb9e59; stroke:none;" d="M228 397L229 398L228 397z"/>
<path style="fill:#5094a2; stroke:none;" d="M255 397L255 405L256 405L255 397z"/>
<path style="fill:#eb9e59; stroke:none;" d="M263 397L264 398L263 397z"/>
<path style="fill:#f1ebe8; stroke:none;" d="M266 397L264 405L269 405L266 397z"/>
<path style="fill:#eb9e59; stroke:none;" d="M267 397L268 398L267 397M270 397L271 398L270 397z"/>
<path style="fill:#896374; stroke:none;" d="M281 397L280 413L281 413L283 397L281 397z"/>
<path style="fill:#5094a2; stroke:none;" d="M285 397L286 398L285 397M301.333 397.667L301.667 398.333L301.333 397.667z"/>
<path style="fill:#eb9e59; stroke:none;" d="M324 397L325 398L324 397M328 397L329 398L328 397z"/>
<path style="fill:#896374; stroke:none;" d="M336 397L337 398L336 397z"/>
<path style="fill:#f1ebe8; stroke:none;" d="M339 397L337 405L342 405L339 397z"/>
<path style="fill:#5094a2; stroke:none;" d="M340 397L341 398L340 397z"/>
<path style="fill:#eb9e59; stroke:none;" d="M343 397L344 398L343 397M24 398L25 399L24 398z"/>
<path style="fill:#896374; stroke:none;" d="M43 398L44 399L43 398M48 398L49 399L48 398z"/>
<path style="fill:#eb9e59; stroke:none;" d="M117 398L118 399L117 398M138 398L139 399L138 398z"/>
<path style="fill:#896374; stroke:none;" d="M162 398L162 401L163 401L162 398M174.333 398.667L174.667 399.333L174.333 398.667M185 398L186 399L185 398z"/>
<path style="fill:#eb9e59; stroke:none;" d="M192 398L193 399L192 398z"/>
<path style="fill:#896374; stroke:none;" d="M202 398L203 399L202 398z"/>
<path style="fill:#eb9e59; stroke:none;" d="M204 398L205 399L204 398z"/>
<path style="fill:#896374; stroke:none;" d="M207 398L208 399L207 398z"/>
<path style="fill:#5094a2; stroke:none;" d="M228 398L229 399L228 398z"/>
<path style="fill:#896374; stroke:none;" d="M263 398L264 399L263 398M265 398L266 399L265 398M270 398L271 399L270 398M298 398L299 399L298 398z"/>
<path style="fill:#eb9e59; stroke:none;" d="M325 398L326 399L325 398z"/>
<path style="fill:#896374; stroke:none;" d="M328 398L329 399L328 398M338 398L339 399L338 398z"/>
<path style="fill:#eb9e59; stroke:none;" d="M340 398L341 399L340 398z"/>
<path style="fill:#5094a2; stroke:none;" d="M343 398L344 399L343 398z"/>
<path style="fill:#896374; stroke:none;" d="M24 399L24 404L25 404L24 399M36 399L37 400L36 399M45 399L46 400L45 399z"/>
<path style="fill:#eb9e59; stroke:none;" d="M48 399L49 400L48 399M51 399L52 400L51 399z"/>
<path style="fill:#5094a2; stroke:none;" d="M71 399L72 400L71 399M94 399L95 400L94 399z"/>
<path style="fill:#896374; stroke:none;" d="M108.333 399.667L108.667 400.333L108.333 399.667M117 399L117 402L118 402L117 399z"/>
<path style="fill:#eb9e59; stroke:none;" d="M137 399L138 400L137 399M149.333 399.667L149.667 400.333L149.333 399.667M177 399L178 400L177 399z"/>
<path style="fill:#896374; stroke:none;" d="M187 399L188 400L187 399z"/>
<path style="fill:#eb9e59; stroke:none;" d="M202 399L203 400L202 399z"/>
<path style="fill:#896374; stroke:none;" d="M205 399L206 400L205 399z"/>
<path style="fill:#eb9e59; stroke:none;" d="M228 399L229 400L228 399M240 399L240 410L241 410L240 399M265 399L266 400L265 399z"/>
<path style="fill:#896374; stroke:none;" d="M268 399L269 400L268 399z"/>
<path style="fill:#5094a2; stroke:none;" d="M283 399L284 400L283 399M286 399L287 400L286 399z"/>
<path style="fill:#eb9e59; stroke:none;" d="M298 399L299 400L298 399M302 399L303 400L302 399M335 399L336 400L335 399M338 399L339 400L338 399z"/>
<path style="fill:#896374; stroke:none;" d="M341.333 399.667L341.667 400.333L341.333 399.667M33 400L34 401L33 400z"/>
<path style="fill:#5094a2; stroke:none;" d="M36 400L37 401L36 400z"/>
<path style="fill:#eb9e59; stroke:none;" d="M42.3333 400.667L42.6667 401.333L42.3333 400.667z"/>
<path style="fill:#5094a2; stroke:none;" d="M45 400L46 401L45 400z"/>
<path style="fill:#eb9e59; stroke:none;" d="M67 400L68 401L67 400M79 400L80 401L79 400z"/>
<path style="fill:#896374; stroke:none;" d="M91 400L92 401L91 400M95.6667 400.333L96.3333 400.667L95.6667 400.333z"/>
<path style="fill:#eb9e59; stroke:none;" d="M152 400L152 406L153 406L152 400M184 400L185 401L184 400M192 400L193 401L192 400z"/>
<path style="fill:#896374; stroke:none;" d="M199 400L200 401L199 400z"/>
<path style="fill:#5094a2; stroke:none;" d="M205 400L206 401L205 400M208 400L209 401L208 400M218 400L219 401L218 400z"/>
<path style="fill:#896374; stroke:none;" d="M224 400L225 401L224 400z"/>
<path style="fill:#5094a2; stroke:none;" d="M227 400L228 401L227 400z"/>
<path style="fill:#896374; stroke:none;" d="M262 400L263 401L262 400z"/>
<path style="fill:#eb9e59; stroke:none;" d="M268.333 400.667L268.667 401.333L268.333 400.667z"/>
<path style="fill:#896374; stroke:none;" d="M271 400L272 401L271 400z"/>
<path style="fill:#eb9e59; stroke:none;" d="M278.333 400.667L278.667 401.333L278.333 400.667z"/>
<path style="fill:#896374; stroke:none;" d="M299 400L301 402L299 400M303 400L304 401L303 400M326 400L326 405L327 405L326 400z"/>
<path style="fill:#eb9e59; stroke:none;" d="M329 400L330 401L329 400z"/>
<path style="fill:#896374; stroke:none;" d="M335 400L336 401L335 400z"/>
<path style="fill:#5094a2; stroke:none;" d="M344 400L345 401L344 400z"/>
<path style="fill:#eb9e59; stroke:none;" d="M32 401L33 402L32 401M36 401L37 402L36 401z"/>
<path style="fill:#896374; stroke:none;" d="M49 401L50 402L49 401z"/>
<path style="fill:#5094a2; stroke:none;" d="M62.6667 401.333L63.3333 401.667L62.6667 401.333z"/>
<path style="fill:#eb9e59; stroke:none;" d="M64.6667 401.333L65.3333 401.667L64.6667 401.333z"/>
<path style="fill:#896374; stroke:none;" d="M66 401L67 402L66 401z"/>
<path style="fill:#5094a2; stroke:none;" d="M70 401L71 402L70 401M80.6667 401.333L81.3333 401.667L80.6667 401.333z"/>
<path style="fill:#eb9e59; stroke:none;" d="M82 401L82 402L86 402L82 401z"/>
<path style="fill:#896374; stroke:none;" d="M92 401L93 402L92 401z"/>
<path style="fill:#5094a2; stroke:none;" d="M97.6667 401.333L98.3333 401.667L97.6667 401.333M109 401L109 402L112 402L109 401z"/>
<path style="fill:#896374; stroke:none;" d="M112 401L113 402L112 401z"/>
<path style="fill:#5094a2; stroke:none;" d="M113.667 401.333L114.333 401.667L113.667 401.333z"/>
<path style="fill:#eb9e59; stroke:none;" d="M115.667 401.333L116.333 401.667L115.667 401.333M139 401L140 402L139 401z"/>
<path style="fill:#896374; stroke:none;" d="M149 401L150 402L149 401M175 401L176 402L175 401z"/>
<path style="fill:#5094a2; stroke:none;" d="M178.333 401.667L178.667 402.333L178.333 401.667M201 401L202 402L201 401z"/>
<path style="fill:#eb9e59; stroke:none;" d="M205 401L206 402L205 401z"/>
<path style="fill:#5094a2; stroke:none;" d="M219 401L220 402L219 401z"/>
<path style="fill:#eb9e59; stroke:none;" d="M220.667 401.333L221.333 401.667L220.667 401.333z"/>
<path style="fill:#896374; stroke:none;" d="M222.667 401.333L223.333 401.667L222.667 401.333M226 401L227 402L226 401z"/>
<path style="fill:#5094a2; stroke:none;" d="M244.667 401.333L245.333 401.667L244.667 401.333z"/>
<path style="fill:#eb9e59; stroke:none;" d="M246 401L247 402L246 401z"/>
<path style="fill:#5094a2; stroke:none;" d="M247 401L247 402L252 402L247 401M264 401L265 402L264 401z"/>
<path style="fill:#eb9e59; stroke:none;" d="M284 401L285 402L284 401z"/>
<path style="fill:#896374; stroke:none;" d="M287 401L288 402L287 401z"/>
<path style="fill:#eb9e59; stroke:none;" d="M299 401L300 402L299 401z"/>
<path style="fill:#5094a2; stroke:none;" d="M305 401L306 402L305 401z"/>
<path style="fill:#eb9e59; stroke:none;" d="M306 401L307 402L306 401z"/>
<path style="fill:#5094a2; stroke:none;" d="M329 401L329 405L330 405L329 401M337 401L338 402L337 401z"/>
<path style="fill:#eb9e59; stroke:none;" d="M341 401L342 402L341 401z"/>
<path style="fill:#896374; stroke:none;" d="M344 401L345 402L344 401M27 402L28 403L27 402z"/>
<path style="fill:#eb9e59; stroke:none;" d="M28 402L28 403L31 403L28 402z"/>
<path style="fill:#896374; stroke:none;" d="M31 402L32 403L31 402M35 402L36 403L35 402M44 402L45 403L44 402z"/>
<path style="fill:#eb9e59; stroke:none;" d="M49 402L50 403L49 402z"/>
<path style="fill:#5094a2; stroke:none;" d="M52 402L53 403L52 402z"/>
<path style="fill:#896374; stroke:none;" d="M86 402L87 403L86 402z"/>
<path style="fill:#eb9e59; stroke:none;" d="M93 402L94 403L93 402z"/>
<path style="fill:#5094a2; stroke:none;" d="M99 402L100 403L99 402z"/>
<path style="fill:#896374; stroke:none;" d="M106.333 402.667L106.667 403.333L106.333 402.667z"/>
<path style="fill:#eb9e59; stroke:none;" d="M149 402L149 405L150 405L149 402M175 402L176 403L175 402M183 402L184 403L183 402z"/>
<path style="fill:#5094a2; stroke:none;" d="M186 402L187 403L186 402z"/>
<path style="fill:#eb9e59; stroke:none;" d="M192.333 402.667L192.667 403.333L192.333 402.667M198 402L199 403L198 402M201 402L202 403L201 402z"/>
<path style="fill:#896374; stroke:none;" d="M206 402L207 403L206 402M225 402L226 403L225 402z"/>
<path style="fill:#eb9e59; stroke:none;" d="M261 402L262 403L261 402z"/>
<path style="fill:#896374; stroke:none;" d="M269 402L270 403L269 402z"/>
<path style="fill:#5094a2; stroke:none;" d="M288 402L289 403L288 402z"/>
<path style="fill:#896374; stroke:none;" d="M291 402L292 403L291 402M301 402L302 403L301 402z"/>
<path style="fill:#eb9e59; stroke:none;" d="M307 402L308 403L307 402M334 402L335 403L334 402z"/>
<path style="fill:#896374; stroke:none;" d="M342 402L343 403L342 402z"/>
<path style="fill:#5094a2; stroke:none;" d="M34 403L35 404L34 403z"/>
<path style="fill:#896374; stroke:none;" d="M41 403L42 404L41 403z"/>
<path style="fill:#eb9e59; stroke:none;" d="M44.3333 403.667L44.6667 404.333L44.3333 403.667z"/>
<path style="fill:#896374; stroke:none;" d="M52 403L53 404L52 403M68 403L69 404L68 403z"/>
<path style="fill:#5094a2; stroke:none;" d="M86 403L87 404L86 403M95 403L96 404L95 403z"/>
<path style="fill:#eb9e59; stroke:none;" d="M101 403L102 404L101 403M136 403L137 404L136 403z"/>
<path style="fill:#896374; stroke:none;" d="M139 403L140 404L139 403M183 403L184 404L183 403z"/>
<path style="fill:#eb9e59; stroke:none;" d="M206.333 403.667L206.667 404.333L206.333 403.667z"/>
<path style="fill:#5094a2; stroke:none;" d="M209 403L210 404L209 403z"/>
<path style="fill:#eb9e59; stroke:none;" d="M225 403L226 404L225 403z"/>
<path style="fill:#896374; stroke:none;" d="M261 403L262 404L261 403z"/>
<path style="fill:#eb9e59; stroke:none;" d="M269.333 403.667L269.667 404.333L269.333 403.667z"/>
<path style="fill:#5094a2; stroke:none;" d="M272 403L273 404L272 403z"/>
<path style="fill:#eb9e59; stroke:none;" d="M285 403L286 404L285 403M291 403L291 407L292 407L291 403z"/>
<path style="fill:#896374; stroke:none;" d="M303 403L304 404L303 403M308 403L309 404L308 403z"/>
<path style="fill:#eb9e59; stroke:none;" d="M342.333 403.667L342.667 404.333L342.333 403.667z"/>
<path style="fill:#5094a2; stroke:none;" d="M345 403L346 404L345 403z"/>
<path style="fill:#eb9e59; stroke:none;" d="M24 404L25 405L24 404z"/>
<path style="fill:#896374; stroke:none;" d="M32 404L33 405L32 404M50 404L51 405L50 404z"/>
<path style="fill:#eb9e59; stroke:none;" d="M53 404L54 405L53 404z"/>
<path style="fill:#896374; stroke:none;" d="M69 404L70 405L69 404z"/>
<path style="fill:#5094a2; stroke:none;" d="M79 404L80 405L79 404z"/>
<path style="fill:#896374; stroke:none;" d="M97 404L98 405L97 404M101 404L102 405L101 404M108 404L109 405L108 404z"/>
<path style="fill:#eb9e59; stroke:none;" d="M117.333 404.667L117.667 405.333L117.333 404.667z"/>
<path style="fill:#896374; stroke:none;" d="M137 404L138 405L137 404M140 404L141 405L140 404M162 404L163 405L162 404z"/>
<path style="fill:#eb9e59; stroke:none;" d="M176 404L177 405L176 404z"/>
<path style="fill:#5094a2; stroke:none;" d="M179 404L180 405L179 404z"/>
<path style="fill:#eb9e59; stroke:none;" d="M182 404L183 405L182 404z"/>
<path style="fill:#896374; stroke:none;" d="M185 404L186 405L185 404z"/>
<path style="fill:#eb9e59; stroke:none;" d="M197.333 404.667L197.667 405.333L197.333 404.667z"/>
<path style="fill:#896374; stroke:none;" d="M200 404L201 405L200 404M207 404L208 405L207 404z"/>
<path style="fill:#5094a2; stroke:none;" d="M218 404L219 405L218 404z"/>
<path style="fill:#eb9e59; stroke:none;" d="M222 404L223 405L222 404M226 404L227 405L226 404z"/>
<path style="fill:#896374; stroke:none;" d="M243 404L242 413L243 413L243 404M252 404L255 413L255 412L252 404M263 404L264 405L263 404M286 404L287 405L286 404M289 404L290 405L289 404M305 404L306 405L305 404z"/>
<path style="fill:#5094a2; stroke:none;" d="M309 404L310 405L309 404M336 404L337 405L336 404z"/>
<path style="fill:#896374; stroke:none;" d="M24 405L27 413L27 412L24 405M53 405L54 406L53 405z"/>
<path style="fill:#eb9e59; stroke:none;" d="M66 405L67 406L66 405M70 405L71 406L70 405M76 405L77 406L76 405M98 405L99 406L98 405z"/>
<path style="fill:#5094a2; stroke:none;" d="M141 405L142 406L141 405z"/>
<path style="fill:#896374; stroke:none;" d="M149 405L150 406L149 405M182 405L183 406L182 405M218 405L216 412L216 413C219.076 411.006 219.383 408.332 218 405z"/>
<path style="fill:#eb9e59; stroke:none;" d="M223 405L224 406L223 405z"/>
<path style="fill:#896374; stroke:none;" d="M226 405L227 406L226 405z"/>
<path style="fill:#eb9e59; stroke:none;" d="M260 405L261 406L260 405M273 405L274 406L273 405M278.333 405.667L278.667 406.333L278.333 405.667M306 405L307 406L306 405M329 405L330 406L329 405M333 405L334 406L333 405M27 406L28 407L27 406z"/>
<path style="fill:#896374; stroke:none;" d="M40.3333 406.667L40.6667 407.333L40.3333 406.667M67 406L68 407L67 406z"/>
<path style="fill:#5094a2; stroke:none;" d="M70 406L71 407L70 406z"/>
<path style="fill:#896374; stroke:none;" d="M76 406L76 411L77 411L76 406z"/>
<path style="fill:#5094a2; stroke:none;" d="M79 406L79 410L80 410L79 406z"/>
<path style="fill:#896374; stroke:none;" d="M99.3333 406.667L99.6667 407.333L99.3333 406.667z"/>
<path style="fill:#5094a2; stroke:none;" d="M102 406L103 407L102 406z"/>
<path style="fill:#896374; stroke:none;" d="M106 406L107 407L106 406M117 406L118 407L117 406z"/>
<path style="fill:#eb9e59; stroke:none;" d="M138 406L139 407L138 406M142 406L143 407L142 406M149.333 406.667L149.667 407.333L149.333 406.667z"/>
<path style="fill:#5094a2; stroke:none;" d="M152.333 406.667L152.667 407.333L152.333 406.667z"/>
<path style="fill:#896374; stroke:none;" d="M177 406L178 407L177 406z"/>
<path style="fill:#eb9e59; stroke:none;" d="M180 406L181 407L180 406z"/>
<path style="fill:#896374; stroke:none;" d="M184 406L185 407L184 406M210 406L211 407L210 406M224 406L225 407L224 406M260 406L261 407L260 406M273 406L274 407L273 406M287 406L288 407L287 406M290 406L290 408L292 408L290 406z"/>
<path style="fill:#eb9e59; stroke:none;" d="M325 406L326 407L325 406z"/>
<path style="fill:#896374; stroke:none;" d="M328 406L329 407L328 406M346 406L347 407L346 406z"/>
<path style="fill:#eb9e59; stroke:none;" d="M43 407L44 408L43 407z"/>
<path style="fill:#896374; stroke:none;" d="M51 407L52 408L51 407z"/>
<path style="fill:#5094a2; stroke:none;" d="M54.3333 407.667L54.6667 408.333L54.3333 407.667z"/>
<path style="fill:#eb9e59; stroke:none;" d="M67 407L68 408L67 407M102 407L103 408L102 407M105 407L106 408L105 407z"/>
<path style="fill:#5094a2; stroke:none;" d="M108 407L109 408L108 407M117 407L118 408L117 407z"/>
<path style="fill:#eb9e59; stroke:none;" d="M139 407L140 408L139 407z"/>
<path style="fill:#896374; stroke:none;" d="M164 407L165 408L164 407z"/>
<path style="fill:#eb9e59; stroke:none;" d="M177 407L178 408L177 407z"/>
<path style="fill:#896374; stroke:none;" d="M180 407L181 408L180 407z"/>
<path style="fill:#5094a2; stroke:none;" d="M181 407L182 408L181 407M184 407L185 408L184 407z"/>
<path style="fill:#eb9e59; stroke:none;" d="M192 407L193 408L192 407z"/>
<path style="fill:#896374; stroke:none;" d="M199 407L200 408L199 407z"/>
<path style="fill:#eb9e59; stroke:none;" d="M207 407L208 408L207 407M224 407L225 408L224 407z"/>
<path style="fill:#5094a2; stroke:none;" d="M227 407L228 408L227 407M255 407L255 410L256 410L255 407z"/>
<path style="fill:#896374; stroke:none;" d="M262 407L263 408L262 407z"/>
<path style="fill:#eb9e59; stroke:none;" d="M270 407L271 408L270 407z"/>
<path style="fill:#896374; stroke:none;" d="M325 407L326 408L325 407z"/>
<path style="fill:#5094a2; stroke:none;" d="M328 407L329 408L328 407z"/>
<path style="fill:#eb9e59; stroke:none;" d="M332 407L333 408L332 407z"/>
<path style="fill:#896374; stroke:none;" d="M335 407L336 408L335 407z"/>
<path style="fill:#eb9e59; stroke:none;" d="M343 407L344 408L343 407M39 408L40 409L39 408z"/>
<path style="fill:#896374; stroke:none;" d="M42 408L43 409L42 408M68 408L69 409L68 408z"/>
<path style="fill:#5094a2; stroke:none;" d="M71 408L72 409L71 408z"/>
<path style="fill:#eb9e59; stroke:none;" d="M117 408L118 409L117 408z"/>
<path style="fill:#896374; stroke:none;" d="M140 408L141 409L140 408M143 408L144 409L143 408z"/>
<path style="fill:#eb9e59; stroke:none;" d="M153 408L154 409L153 408z"/>
<path style="fill:#896374; stroke:none;" d="M161 408L162 409L161 408z"/>
<path style="fill:#eb9e59; stroke:none;" d="M164 408L165 409L164 408z"/>
<path style="fill:#896374; stroke:none;" d="M178 408L179 409L178 408M196 408L197 409L196 408M208 408L209 409L208 408z"/>
<path style="fill:#5094a2; stroke:none;" d="M211 408L212 409L211 408z"/>
<path style="fill:#896374; stroke:none;" d="M259.333 408.667L259.667 409.333L259.333 408.667z"/>
<path style="fill:#eb9e59; stroke:none;" d="M262 408L263 409L262 408M271.333 408.667L271.667 409.333L271.333 408.667z"/>
<path style="fill:#5094a2; stroke:none;" d="M274 408L275 409L274 408z"/>
<path style="fill:#eb9e59; stroke:none;" d="M278 408L278 412L279 412L278 408M288 408L289 409L288 408z"/>
<path style="fill:#896374; stroke:none;" d="M324 408L325 409L324 408M332 408L333 409L332 408M344 408L345 409L344 408M39 409L40 410L39 409z"/>
<path style="fill:#5094a2; stroke:none;" d="M42 409L43 410L42 409z"/>
<path style="fill:#eb9e59; stroke:none;" d="M68 409L69 410L68 409z"/>
<path style="fill:#896374; stroke:none;" d="M90 409L91 410L90 409z"/>
<path style="fill:#eb9e59; stroke:none;" d="M92 409L93 410L92 409z"/>
<path style="fill:#896374; stroke:none;" d="M98 409L99 410L98 409M117 409L120 413L120 412L117 409z"/>
<path style="fill:#5094a2; stroke:none;" d="M144 409L145 410L144 409z"/>
<path style="fill:#eb9e59; stroke:none;" d="M150 409L151 410L150 409z"/>
<path style="fill:#5094a2; stroke:none;" d="M154 409L155 410L154 409z"/>
<path style="fill:#896374; stroke:none;" d="M163 409L164 410L163 409z"/>
<path style="fill:#eb9e59; stroke:none;" d="M178 409L179 410L178 409z"/>
<path style="fill:#896374; stroke:none;" d="M183 409L184 410L183 409z"/>
<path style="fill:#eb9e59; stroke:none;" d="M195.333 409.667L195.667 410.333L195.333 409.667M208.333 409.667L208.667 410.333L208.333 409.667z"/>
<path style="fill:#896374; stroke:none;" d="M211 409L212 410L211 409M225 409L226 410L225 409z"/>
<path style="fill:#5094a2; stroke:none;" d="M228 409L229 410L228 409z"/>
<path style="fill:#896374; stroke:none;" d="M274 409L275 410L274 409z"/>
<path style="fill:#eb9e59; stroke:none;" d="M305 409L306 410L305 409z"/>
<path style="fill:#5094a2; stroke:none;" d="M309 409L310 410L309 409z"/>
<path style="fill:#896374; stroke:none;" d="M323 409L324 410L323 409z"/>
<path style="fill:#5094a2; stroke:none;" d="M327 409L328 410L327 409z"/>
<path style="fill:#eb9e59; stroke:none;" d="M331.333 409.667L331.667 410.333L331.333 409.667M344 409L345 410L344 409z"/>
<path style="fill:#896374; stroke:none;" d="M347 409L348 410L347 409z"/>
<path style="fill:#eb9e59; stroke:none;" d="M27.3333 410.667L27.6667 411.333L27.3333 410.667z"/>
<path style="fill:#896374; stroke:none;" d="M52 410L53 411L52 410z"/>
<path style="fill:#5094a2; stroke:none;" d="M55 410L56 411L55 410z"/>
<path style="fill:#896374; stroke:none;" d="M69.3333 410.667L69.6667 411.333L69.3333 410.667z"/>
<path style="fill:#eb9e59; stroke:none;" d="M72 410L73 411L72 410z"/>
<path style="fill:#896374; stroke:none;" d="M86.6667 410.333L87.3333 410.667L86.6667 410.333M96 410L97 411L96 410z"/>
<path style="fill:#eb9e59; stroke:none;" d="M101 410L102 411L101 410M141 410L142 411L141 410z"/>
<path style="fill:#5094a2; stroke:none;" d="M145 410L146 411L145 410z"/>
<path style="fill:#eb9e59; stroke:none;" d="M151 410L152 411L151 410z"/>
<path style="fill:#896374; stroke:none;" d="M162 410L163 411L162 410z"/>
<path style="fill:#eb9e59; stroke:none;" d="M192 410L193 411L192 410z"/>
<path style="fill:#896374; stroke:none;" d="M198 410L199 411L198 410z"/>
<path style="fill:#eb9e59; stroke:none;" d="M225 410L226 411L225 410M255 410L256 411L255 410M258 410L259 411L258 410z"/>
<path style="fill:#896374; stroke:none;" d="M261 410L262 411L261 410z"/>
<path style="fill:#eb9e59; stroke:none;" d="M275 410L276 411L275 410M289 410L290 411L289 410z"/>
<path style="fill:#896374; stroke:none;" d="M304 410L305 411L304 410M308 410L309 411L308 410M317 410L318 411L317 410M321 410L322 411L321 410z"/>
<path style="fill:#eb9e59; stroke:none;" d="M326 410L327 411L326 410z"/>
<path style="fill:#896374; stroke:none;" d="M334 410L335 411L334 410z"/>
<path style="fill:#eb9e59; stroke:none;" d="M38 411L39 412L38 411z"/>
<path style="fill:#896374; stroke:none;" d="M41 411L42 412L41 411z"/>
<path style="fill:#eb9e59; stroke:none;" d="M52 411L53 412L52 411z"/>
<path style="fill:#896374; stroke:none;" d="M72 411L71 413L72 411z"/>
<path style="fill:#eb9e59; stroke:none;" d="M76.3333 411.667L76.6667 412.333L76.3333 411.667M90 411L91 412L90 411z"/>
<path style="fill:#896374; stroke:none;" d="M99 411L100 412L99 411z"/>
<path style="fill:#eb9e59; stroke:none;" d="M100 411L101 412L100 411M142 411L143 412L142 411z"/>
<path style="fill:#5094a2; stroke:none;" d="M152 411L153 412L152 411z"/>
<path style="fill:#896374; stroke:none;" d="M161 411L162 412L161 411M179 411L180 412L179 411M182 411L181 413L182 411M195 411L198 413L198 412L195 411z"/>
<path style="fill:#eb9e59; stroke:none;" d="M198 411L199 412L198 411z"/>
<path style="fill:#896374; stroke:none;" d="M209 411L210 412L209 411z"/>
<path style="fill:#5094a2; stroke:none;" d="M212 411L213 412L212 411z"/>
<path style="fill:#896374; stroke:none;" d="M226 411L229 413L229 412L226 411z"/>
<path style="fill:#5094a2; stroke:none;" d="M229 411L230 412L229 411z"/>
<path style="fill:#eb9e59; stroke:none;" d="M240 411L241 412L240 411z"/>
<path style="fill:#5094a2; stroke:none;" d="M255 411L256 412L255 411z"/>
<path style="fill:#896374; stroke:none;" d="M258 411L261 413L261 412L258 411z"/>
<path style="fill:#eb9e59; stroke:none;" d="M261 411L262 412L261 411z"/>
<path style="fill:#896374; stroke:none;" d="M272 411L273 412L272 411z"/>
<path style="fill:#5094a2; stroke:none;" d="M275 411L276 412L275 411z"/>
<path style="fill:#896374; stroke:none;" d="M290 411L293 413L293 412L290 411M298 411L299 412L298 411z"/>
<path style="fill:#5094a2; stroke:none;" d="M307 411L308 412L307 411M324 411L325 412L324 411z"/>
<path style="fill:#eb9e59; stroke:none;" d="M325 411L326 412L325 411z"/>
<path style="fill:#896374; stroke:none;" d="M331 411L334 413L334 412L331 411M345 411L346 412L345 411z"/>
<path style="fill:#5094a2; stroke:none;" d="M348 411L349 412L348 411z"/>
<path style="fill:#eb9e59; stroke:none;" d="M24 412L25 413L24 412z"/>
<path style="fill:#896374; stroke:none;" d="M39.6667 412.333L40.3333 412.667L39.6667 412.333z"/>
<path style="fill:#eb9e59; stroke:none;" d="M53 412L54 413L53 412z"/>
<path style="fill:#896374; stroke:none;" d="M54 412L55 413L54 412z"/>
<path style="fill:#5094a2; stroke:none;" d="M55 412L56 413L55 412z"/>
<path style="fill:#eb9e59; stroke:none;" d="M59 412L60 413L59 412z"/>
<path style="fill:#5094a2; stroke:none;" d="M61 412L62 413L61 412M70 412L71 413L70 412z"/>
<path style="fill:#eb9e59; stroke:none;" d="M72 412L73 413L72 412z"/>
<path style="fill:#896374; stroke:none;" d="M77 412L77 413L88 413L77 412M92 412L92 413L97 413L92 412z"/>
<path style="fill:#5094a2; stroke:none;" d="M97.6667 412.333L98.3333 412.667L97.6667 412.333z"/>
<path style="fill:#eb9e59; stroke:none;" d="M106 412L107 413L106 412z"/>
<path style="fill:#896374; stroke:none;" d="M107 412L108 413L107 412z"/>
<path style="fill:#5094a2; stroke:none;" d="M108 412L109 413L108 412z"/>
<path style="fill:#eb9e59; stroke:none;" d="M117 412L118 413L117 412M133 412L134 413L133 412z"/>
<path style="fill:#5094a2; stroke:none;" d="M135 412L136 413L135 412z"/>
<path style="fill:#eb9e59; stroke:none;" d="M143 412L144 413L143 412z"/>
<path style="fill:#896374; stroke:none;" d="M144 412L145 413L144 412z"/>
<path style="fill:#5094a2; stroke:none;" d="M145 412L146 413L145 412M154 412L155 413L154 412z"/>
<path style="fill:#896374; stroke:none;" d="M155 412L155 413L160 413L155 412z"/>
<path style="fill:#eb9e59; stroke:none;" d="M170 412L171 413L170 412M172 412L173 413L172 412z"/>
<path style="fill:#5094a2; stroke:none;" d="M180 412L181 413L180 412z"/>
<path style="fill:#eb9e59; stroke:none;" d="M182 412L183 413L182 412M189 412L190 413L189 412M195 412L196 413L195 412z"/>
<path style="fill:#896374; stroke:none;" d="M210.667 412.333L211.333 412.667L210.667 412.333z"/>
<path style="fill:#eb9e59; stroke:none;" d="M212 412L213 413L212 412M218 412L219 413L218 412M226 412L227 413L226 412M229 412L230 413L229 412M241 412L242 413L241 412M243 412L244 413L243 412M252 412L253 413L252 412M258 412L259 413L258 412z"/>
<path style="fill:#896374; stroke:none;" d="M273.667 412.333L274.333 412.667L273.667 412.333z"/>
<path style="fill:#eb9e59; stroke:none;" d="M275 412L276 413L275 412M279 412L280 413L279 412M281 412L282 413L281 412M290 412L291 413L290 412z"/>
<path style="fill:#5094a2; stroke:none;" d="M293 412L294 413L293 412z"/>
<path style="fill:#896374; stroke:none;" d="M300 412L300 413L306 413L300 412z"/>
<path style="fill:#eb9e59; stroke:none;" d="M306 412L307 413L306 412z"/>
<path style="fill:#896374; stroke:none;" d="M315 412L315 413L323 413L315 412z"/>
<path style="fill:#eb9e59; stroke:none;" d="M331 412L332 413L331 412z"/>
<path style="fill:#896374; stroke:none;" d="M346.667 412.333L347.333 412.667L346.667 412.333z"/>
<path style="fill:#eb9e59; stroke:none;" d="M348 412L349 413L348 412z"/>
</svg>
